<svg width="949" height="837" viewBox="0 0 949 837" fill="none" xmlns="http://www.w3.org/2000/svg">
<path d="M214 219.205H27V96.205H198.889L214 219.205Z" fill="#EFEFEF"/>
<path d="M141.5 151.048C150.889 151.048 158.5 143.436 158.5 134.048C158.5 124.659 150.889 117.048 141.5 117.048C132.111 117.048 124.5 124.659 124.5 134.048C124.5 143.436 132.111 151.048 141.5 151.048Z" fill="#408BA6"/>
<path d="M188.95 61.4486C190.562 59.6198 192.231 57.7998 193.912 56.0388L195.672 57.7188C194.012 59.4565 192.365 61.2523 190.775 63.0565L188.95 61.4486Z" fill="#3F3D56"/>
<path d="M204.681 45.6583C208.398 42.36 212.297 39.1788 216.269 36.2037L217.728 38.1498C213.809 41.0858 209.963 44.2239 206.296 47.4779L204.681 45.6583ZM228.6 27.7423C232.807 25.1056 237.178 22.6128 241.59 20.3326L242.707 22.494C238.354 24.7429 234.043 27.2019 229.893 29.803L228.6 27.7423ZM255.149 14.0253C259.726 12.1219 264.446 10.3833 269.179 8.85607L269.926 11.1714C265.256 12.6774 260.599 14.3935 256.084 16.2711L255.149 14.0253ZM284.142 7.21356L283.585 4.84631C288.426 3.70755 293.365 2.75631 298.263 2.01853L298.626 4.42423C293.792 5.1518 288.919 6.09022 284.142 7.21356ZM313.288 2.83086L313.126 0.403939C318.08 0.0721491 323.108 -0.0562511 328.071 0.0225189L328.033 2.45511C323.136 2.37681 318.176 2.50356 313.288 2.83082V2.83086ZM342.759 3.30301L342.999 0.88289C347.941 1.37395 352.926 2.07923 357.814 2.97902L357.374 5.37138C352.551 4.48331 347.634 3.78747 342.759 3.30297V3.30301ZM433.922 323.801C437.807 320.825 441.619 317.647 445.251 314.354L446.885 316.157C443.203 319.495 439.34 322.716 435.402 325.732L433.922 323.801ZM371.766 8.64082L372.402 6.29325C377.192 7.5921 381.991 9.10793 386.665 10.7985L385.837 13.0854C381.226 11.4178 376.492 9.92214 371.766 8.64082ZM455.763 304.004C459.107 300.427 462.346 296.666 465.387 292.824L467.294 294.334C464.211 298.228 460.929 302.04 457.54 305.665L455.763 304.004ZM399.495 18.6716L400.508 16.4592C405.024 18.5266 409.509 20.8058 413.839 23.235L412.65 25.356C408.377 22.9596 403.951 20.7104 399.495 18.6716ZM474.062 280.892C476.78 276.814 479.361 272.573 481.734 268.288L483.862 269.467C481.456 273.809 478.841 278.107 476.087 282.24L474.062 280.892ZM425.211 33.094L426.57 31.0774C430.687 33.8519 434.74 36.832 438.616 39.9347L437.096 41.8336C433.271 38.7721 429.273 35.8319 425.211 33.094ZM488.348 255.099C490.363 250.632 492.217 246.027 493.859 241.411L496.151 242.226C494.486 246.905 492.607 251.572 490.565 256.099L488.348 255.099ZM448.221 51.5157L449.892 49.7482C453.502 53.1607 457.011 56.7627 460.322 60.4549L458.511 62.0786C455.245 58.4361 451.783 54.8826 448.221 51.5157ZM498.227 227.317C499.484 222.574 500.558 217.727 501.417 212.911L503.813 213.338C502.941 218.22 501.853 223.133 500.578 227.941L498.227 227.317ZM467.892 73.4528L469.831 71.9838C472.827 75.9407 475.694 80.07 478.351 84.2576L476.297 85.5604C473.676 81.4296 470.849 77.3557 467.892 73.4528ZM503.407 198.289C503.865 193.413 504.123 188.455 504.175 183.553L506.607 183.579C506.555 188.547 506.293 193.573 505.828 198.516L503.407 198.289ZM483.675 98.3322L485.83 97.2045C488.13 101.597 490.276 106.147 492.21 110.725L489.969 111.671C488.061 107.154 485.944 102.667 483.675 98.3322V98.3322ZM503.719 168.805C503.366 163.929 502.803 158.997 502.045 154.148L504.449 153.773C505.216 158.688 505.787 163.686 506.145 168.629L503.719 168.805ZM495.143 125.483L497.454 124.724C499.002 129.433 500.38 134.287 501.542 139.107L499.176 139.677C498.031 134.917 496.671 130.131 495.143 125.483V125.483Z" fill="#3F3D56"/>
<path d="M415.512 336.161C417.588 334.948 419.668 333.675 421.693 332.378L423.006 334.426C420.952 335.741 418.844 337.032 416.739 338.261L415.512 336.161Z" fill="#3F3D56"/>
<path d="M27 180.742L64.268 143.474L98 177.205L162 113.205L214.5 166.705V219.205H27V180.742Z" fill="#413F47"/>
<path d="M155 428.205H135V454.205H155V428.205Z" fill="#3F3D56"/>
<path d="M468.263 600.084L454.121 585.942L435.737 604.327L449.879 618.469L468.263 600.084Z" fill="#3F3D56"/>
<path d="M409.263 146.084L395.121 131.942L376.737 150.327L390.879 164.469L409.263 146.084Z" fill="#3F3D56"/>
<path d="M660.003 686.449C658.896 688.621 657.731 690.798 656.54 692.921L654.418 691.731C655.594 689.636 656.744 687.487 657.836 685.345L660.003 686.449Z" fill="#3F3D56"/>
<path d="M648.686 705.652C645.905 709.77 642.919 713.819 639.81 717.688L637.913 716.165C640.98 712.348 643.927 708.353 646.67 704.29L648.686 705.652ZM629.966 728.947C626.546 732.546 622.931 736.046 619.223 739.35L617.605 737.534C621.263 734.275 624.829 730.822 628.203 727.272L629.966 728.947ZM607.656 748.828C603.695 751.808 599.555 754.665 595.35 757.319L594.051 755.262C598.2 752.644 602.285 749.825 606.193 746.884L607.656 748.828ZM581.263 762.627L582.391 764.782C577.985 767.087 573.437 769.235 568.875 771.166L567.926 768.926C572.428 767.021 576.915 764.901 581.263 762.627ZM554.119 774.111L554.879 776.422C550.163 777.973 545.324 779.347 540.496 780.503L539.929 778.137C544.692 776.997 549.466 775.642 554.119 774.111ZM525.455 780.973L525.823 783.377C520.913 784.129 515.91 784.684 510.952 785.026L510.784 782.599C515.676 782.262 520.611 781.715 525.455 780.973V780.973ZM357.547 493.159C354.523 497.006 351.62 501.031 348.92 505.123L346.889 503.783C349.627 499.635 352.569 495.555 355.635 491.656L357.547 493.159ZM496.031 783.007L495.997 785.439C491.034 785.37 486.01 785.094 481.063 784.617L481.296 782.196C486.177 782.666 491.135 782.939 496.031 783.007ZM341.308 517.76C338.957 522.055 336.754 526.503 334.763 530.98L332.54 529.991C334.559 525.453 336.791 520.945 339.175 516.592L341.308 517.76ZM466.679 780.177L466.247 782.572C461.359 781.691 456.449 780.597 451.651 779.319L452.276 776.969C457.011 778.229 461.856 779.309 466.679 780.177ZM329.322 544.693C327.703 549.318 326.256 554.067 325.022 558.807L322.668 558.194C323.919 553.39 325.385 548.577 327.026 543.889L329.322 544.693ZM438.186 772.594L437.371 774.885C432.694 773.219 428.028 771.339 423.503 769.296L424.504 767.08C428.969 769.095 433.572 770.95 438.186 772.594ZM321.891 573.225C321.048 578.053 320.396 582.975 319.952 587.853L317.529 587.633C317.979 582.688 318.64 577.7 319.494 572.808L321.891 573.225ZM411.322 760.464L410.143 762.591C405.798 760.182 401.505 757.564 397.38 754.81L398.732 752.788C402.8 755.505 407.036 758.087 411.322 760.464ZM319.221 602.59C319.181 607.497 319.344 612.459 319.708 617.338L317.282 617.519C316.914 612.573 316.748 607.544 316.788 602.57L319.221 602.59ZM386.819 744.1L385.306 746.004C381.421 742.916 377.618 739.628 374.004 736.231L375.671 734.459C379.235 737.809 382.986 741.053 386.819 744.1H386.819ZM321.413 631.996C322.18 636.833 323.161 641.7 324.328 646.461L321.966 647.039C320.783 642.214 319.788 637.28 319.01 632.377L321.413 631.996ZM365.352 723.92L363.545 725.547C360.226 721.863 357.017 717.99 354.006 714.035L355.942 712.562C358.912 716.463 362.078 720.284 365.352 723.92ZM328.433 660.633C329.986 665.269 331.756 669.906 333.694 674.415L331.459 675.376C329.496 670.805 327.701 666.105 326.127 661.406L328.433 660.633ZM347.499 700.468L345.45 701.777C342.78 697.6 340.24 693.241 337.918 688.86L340.068 687.721C342.36 692.047 344.866 696.345 347.499 700.468Z" fill="#3F3D56"/>
<path d="M372.311 476.613C370.602 478.304 368.903 480.054 367.263 481.813L365.483 480.155C367.146 478.371 368.868 476.598 370.601 474.884L372.311 476.613Z" fill="#3F3D56"/>
<path d="M478.483 738.802C476.11 738.802 473.79 738.098 471.816 736.779C469.843 735.461 468.305 733.586 467.397 731.394C466.488 729.201 466.251 726.788 466.714 724.46C467.177 722.133 468.32 719.995 469.998 718.316C471.676 716.638 473.814 715.495 476.142 715.032C478.47 714.569 480.883 714.807 483.075 715.715C485.268 716.623 487.142 718.161 488.461 720.135C489.78 722.108 490.483 724.428 490.483 726.802C490.48 729.983 489.214 733.033 486.965 735.283C484.715 737.532 481.665 738.798 478.483 738.802V738.802ZM478.483 716.802C476.505 716.802 474.572 717.388 472.928 718.487C471.283 719.586 470.001 721.147 469.244 722.975C468.488 724.802 468.29 726.813 468.675 728.752C469.061 730.692 470.014 732.474 471.412 733.873C472.811 735.271 474.593 736.224 476.532 736.609C478.472 736.995 480.483 736.797 482.31 736.04C484.137 735.283 485.699 734.002 486.798 732.357C487.897 730.713 488.483 728.779 488.483 726.802C488.48 724.15 487.426 721.608 485.551 719.734C483.676 717.859 481.135 716.805 478.483 716.802V716.802Z" fill="#2F2E41"/>
<path d="M610.311 95.0914H590.57V75.3503H610.311V95.0914ZM592.088 93.5728H608.792V76.8688H592.088V93.5728Z" fill="#3F3D56"/>
<path d="M71.9548 646.171L58.4897 631.735L72.9259 618.27L86.391 632.706L71.9548 646.171ZM60.636 631.81L72.0295 644.025L84.2448 632.632L72.8512 620.416L60.636 631.81Z" fill="#2F2E41"/>
<path d="M602.103 515.335H244.286V370.895H541.92L602.103 515.335Z" fill="#EFEFEF"/>
<path d="M603.738 516.429H200.517V339.162H530.616L530.895 339.839L603.738 516.429ZM202.705 514.241H600.468L529.151 341.351H202.705V514.241Z" fill="#3F3D56"/>
<path d="M481.737 393.874H303.375V410.288H481.737V393.874Z" fill="#408BA6"/>
<path d="M481.737 427.796H303.375V444.209H481.737V427.796Z" fill="#413F47"/>
<path d="M481.737 461.717H303.375V478.131H481.737V461.717Z" fill="#413F47"/>
<path d="M299.432 243.205H0V61.2054H232.698L232.939 61.8611L299.432 243.205ZM2 241.205H296.568L231.302 63.2054H2V241.205Z" fill="#3F3D56"/>
<path d="M215 220.205H26V79.2054H215V220.205ZM28 218.205H213V81.2054H28V218.205Z" fill="#3F3D56"/>
<path d="M298 260.205C307.941 260.205 316 252.146 316 242.205C316 232.264 307.941 224.205 298 224.205C288.059 224.205 280 232.264 280 242.205C280 252.146 288.059 260.205 298 260.205Z" fill="#408BA6"/>
<path d="M600 534.205C609.941 534.205 618 526.146 618 516.205C618 506.264 609.941 498.205 600 498.205C590.059 498.205 582 506.264 582 516.205C582 526.146 590.059 534.205 600 534.205Z" fill="#413F47"/>
</svg>
