<svg fill="none" height="216" viewBox="0 0 372 216" width="372" xmlns="http://www.w3.org/2000/svg"><path d="m125.385 185.09 77.001 1.031c-.861 2.558-1.31 5.236-1.332 7.934-.153 11.45 7.824 20.857 19.273 21.01 11.448.153 19.585-9.037 19.739-20.487.153-11.449-8.152-20.918-20.383-21.082l-53.473-.716.809-60.381 36.349.487c-.861 2.558-1.311 5.236-1.333 7.934-.153 11.45 7.824 20.856 19.273 21.01 11.449.153 19.586-9.038 19.739-20.487s-8.151-20.918-20.383-21.082l-94.126-1.261zm29.678-72.853-.809 60.38-15.841-.212.809-60.381z" fill="#5c5589"/><path d="m122.638 109.292 78.972 1.712c-.905 2.616-1.389 5.359-1.434 8.127-.255 11.742 7.847 21.458 19.589 21.713s20.166-9.103 20.421-20.845c.254-11.743-8.183-21.5251-20.728-21.7971l-54.841-1.1892 1.343-61.9254 37.279.8084c-.906 2.6159-1.39 5.3589-1.435 8.1266-.254 11.7423 7.848 21.4585 19.59 21.7131s20.166-9.1033 20.42-20.8455c.255-11.7423-8.183-21.5247-20.728-21.7967l-96.533-2.0932zm31.06-74.4729-1.343 61.9254-16.246-.3523 1.343-61.9254z" fill="#665d9a"/><path d="m53.1316 165.41 3.9248-95.6838c-6.9207 3.7055-14.8412 4.9759-22.5322 3.6142-7.6911-1.3617-14.7227-5.2794-20.0037-11.1452-5.28099-5.8658-8.51605-13.3517-9.20317-21.296s1.21213-15.9028 5.40307-22.6404c4.1909-6.7376 10.4391-11.87766 17.7749-14.62247 7.3359-2.744814 15.3493-2.940922 22.7966-.55788 7.4474 2.38304 13.9122 7.21195 18.3914 13.73745 4.4791 6.5254 6.7221 14.3825 6.3808 22.352l-3.7208 90.7101 35.5317 1.458-1.487 36.258z" fill="#665d9a"/><path d="m100.979 167.373 1.243-30.308-35.5317-1.458 3.7208-90.71c.2817-6.8124-1.3215-13.5646-4.6258-19.4824s-8.1759-10.7615-14.0561-13.9758c-5.8803-3.21434-12.5311-4.66908-19.1899-4.19741-6.6588.47168-13.056 2.85061-18.458 6.86411 4.8125-5.72102 11.2471-9.77202 18.4098-11.59028 7.1628-1.818257 14.6981-1.31348 21.5594 1.44419 6.8612 2.75767 12.7077 7.63129 16.7272 13.94399 4.0196 6.3127 6.0127 13.7509 5.7024 21.2815l-3.7208 90.7101 35.5317 1.458-1.487 36.259z" fill="#000" opacity=".1"/><circle cx="312" cy="108" fill="#5c5589" r="60"/><circle cx="311.5" cy="108.5" fill="#665d9a" r="54.5"/></svg>