<svg fill="none" height="424" viewBox="0 0 315 424" width="315" xmlns="http://www.w3.org/2000/svg"><path d="m212.531 423.956-39.531-.002v-.5c0-2.02.398-4.021 1.171-5.888s1.907-3.563 3.336-4.992c1.428-1.428 3.125-2.562 4.991-3.335 1.867-.773 3.868-1.171 5.888-1.171h.001l24.144.001z" fill="#2f2e41"/><path d="m275.331 408.069 24.143-.001h.001c2.021 0 4.022.398 5.889 1.171 1.866.773 3.563 1.907 4.991 3.335 1.429 1.429 2.563 3.125 3.336 4.992s1.171 3.868 1.171 5.888v.5l-39.531.002z" fill="#2f2e41"/><path d="m278.78 406.011c-1.023-.003-2.015-.353-2.813-.993s-1.355-1.532-1.581-2.529l-30.387-132.539c-.066-.337-.25-.64-.518-.854-.268-.215-.603-.328-.946-.32h-.007c-.345-.007-.681.109-.948.327-.267.217-.449.523-.513.861l-27.904 131.646c-.218 1.007-.773 1.909-1.573 2.558-.801.648-1.799 1.004-2.829 1.008h-13.293c-.614 0-1.22-.125-1.783-.368-.564-.243-1.071-.599-1.492-1.045-.42-.447-.745-.974-.955-1.551-.209-.576-.299-1.189-.262-1.801l9.901-166.856 3.984-1.179.074.001 78.258.685 16.668 166.672c.058.594-.003 1.194-.179 1.765s-.464 1.101-.847 1.559c-.384.458-.854.835-1.385 1.11-.53.274-1.11.44-1.706.488l-16.604 1.34c-.12.01-.241.015-.36.015z" fill="#2f2e41"/><path d="m246.462 79.647c13.565 0 24.561-10.996 24.561-24.561 0-13.5647-10.996-24.5611-24.561-24.5611-13.564 0-24.561 10.9964-24.561 24.5611 0 13.565 10.997 24.561 24.561 24.561z" fill="#bf9097"/><path d="m231.416 251.849c-4.309.053-8.6-.551-12.727-1.791-3.671-1.107-7.076-2.953-10.006-5.425-2.93-2.473-5.323-5.518-7.032-8.95-.542-1.033-.662-2.235-.335-3.354 2.708-9.246 15.798-57.301 7.446-95.503-1.178-5.307-1.276-10.797-.288-16.143.989-5.346 3.044-10.438 6.044-14.972 2.929-4.498 6.734-8.361 11.189-11.357 4.454-2.996 9.467-5.064 14.738-6.081v-.001c1.385-.271 2.778-.492 4.139-.66 5.827-.717 11.74-.138 17.316 1.697 5.577 1.835 10.679 4.879 14.942 8.916 4.389 4.116 7.814 9.151 10.03 14.746 2.215 5.594 3.166 11.609 2.785 17.614l-6.418 103.004c-.045.772-.289 1.52-.709 2.169-.421.649-1.003 1.178-1.689 1.534-7.393 3.874-29.6 14.557-49.425 14.557z" fill="#ccc"/><path d="m220.153 103.195c3.39.681 6.416 2.574 8.512 5.324s3.12 6.169 2.879 9.618l-2.393 34.243c-.042.6-.219 1.184-.517 1.706-.299.523-.712.971-1.208 1.312s-1.063.565-1.658.657c-.594.091-1.202.047-1.778-.129l-28.824-8.824c-.525-.16-1.011-.427-1.428-.784-.418-.357-.757-.795-.997-1.289-.241-.493-.377-1.031-.401-1.58-.023-.548.066-1.095.263-1.608l11.467-29.805c1.206-3.135 3.482-5.742 6.425-7.36 2.944-1.618 6.365-2.142 9.658-1.481z" fill="#ccc"/><path d="m274.209 37.0068c-2.551-6.4119-7.225-11.7548-13.24-15.1369s-13.009-4.5987-19.813-3.4468l7.744 6.2578c-9.621.324-19.749-.3649-26.619 6.3794 2.187-.0607 5.053 4.6173 7.24 4.5566-4.088.0809-7.796 2.9539-9.602 6.6232-1.673 3.7698-2.064 7.9838-1.114 11.9971.807 4.0092 6.968 13.4018 8.626 17.1398-.285-9.77 18.949-33.0741 28.342-30.642-4.772 1.7705-8.913 4.9145-11.901 9.0353 6.39-3.2248 13.617-4.4073 20.701-3.3871 1.618.3709 3.286.4643 4.935.2762 1.011-.1999 1.953-.6555 2.737-1.3234.785-.6679 1.385-1.5257 1.743-2.4915s.463-2.0073.304-3.0251-.576-1.9779-1.212-2.7885z" fill="#2f2e41"/><path d="m275.686 104.428c3.385-.705 6.911-.153 9.919 1.552s5.292 4.448 6.426 7.714l11.251 32.43c.197.569.264 1.175.194 1.773-.069.598-.273 1.172-.595 1.681-.322.508-.755.937-1.266 1.255-.511.317-1.088.516-1.686.58l-29.974 3.208c-.545.059-1.097.004-1.621-.16s-1.008-.434-1.423-.794c-.415-.359-.752-.8-.989-1.295s-.37-1.034-.39-1.582l-1.163-31.913c-.123-3.357.946-6.649 3.017-9.293 2.072-2.644 5.012-4.471 8.3-5.156z" fill="#ccc"/><path d="m193.021 253.779c-39.604-3.02-86.833-33.774-84.428-65.441 2.404-31.666 48.146-61.145 87.75-58.124 39.604 3.02 62.401 62.199 59.996 93.866-2.404 31.666-23.714 32.72-63.318 29.699z" fill="#f2f2f2"/><path d="m258.918 156.526h-122.863v96.609h122.863z" fill="#3f3d56"/><g fill="#f2f2f2"><path d="m196.088 169.729h-30.31c-.048 0-.096-.01-.141-.028-.045-.019-.085-.046-.119-.08-.035-.034-.062-.075-.08-.12-.019-.044-.028-.092-.028-.141 0-.048.009-.096.028-.141.018-.045.045-.086.08-.12.034-.034.074-.061.119-.08.045-.018.093-.028.141-.028h30.31c.098.001.191.04.26.109s.108.162.108.26-.039.191-.108.261c-.069.069-.162.108-.26.108z"/><path d="m229.268 173.784h-47.673c-.097 0-.191-.039-.26-.108s-.107-.163-.107-.261c0-.097.038-.191.107-.26.069-.07.163-.108.26-.108h47.673c.048 0 .096.009.141.028.044.018.085.045.119.08.034.034.061.074.08.119.018.045.028.093.028.141 0 .049-.01.097-.028.141-.019.045-.046.086-.08.12s-.075.061-.119.08c-.045.018-.093.028-.141.028z"/><path d="m196.236 177.839h-30.311c-.097 0-.191-.039-.26-.108s-.108-.163-.108-.26c0-.098.039-.192.108-.261s.163-.108.26-.108h30.311c.097 0 .191.039.26.108s.107.163.107.261c0 .097-.038.191-.107.26s-.163.108-.26.108z"/><path d="m229.268 177.913h-30.31c-.098 0-.192-.039-.26-.108-.069-.069-.108-.163-.108-.261s.039-.191.108-.26c.068-.07.162-.108.26-.108h30.31c.097 0 .191.038.26.108.069.069.108.162.108.26s-.039.192-.108.261-.163.108-.26.108z"/><path d="m196.309 181.894h-30.31c-.098 0-.191-.038-.26-.108-.069-.069-.108-.163-.108-.26 0-.098.039-.192.108-.261s.162-.108.26-.108h30.31c.098 0 .191.039.26.108s.108.163.108.261c0 .097-.039.191-.108.26-.069.07-.162.108-.26.108z"/><path d="m196.383 185.95h-30.311c-.097 0-.191-.039-.26-.108-.069-.07-.107-.163-.107-.261s.038-.192.107-.261.163-.108.26-.108h30.311c.097 0 .191.039.26.108s.108.163.108.261-.039.191-.108.261c-.069.069-.163.108-.26.108z"/><path d="m210.14 169.802h-8.681c-.098 0-.191-.038-.26-.107-.069-.07-.108-.163-.108-.261s.039-.192.108-.261.162-.108.26-.108h8.681c.098 0 .191.039.26.108s.108.163.108.261-.039.191-.108.261c-.069.069-.162.107-.26.107z"/><path d="m210.14 181.894h-8.681c-.098 0-.191-.038-.26-.108-.069-.069-.108-.163-.108-.26 0-.098.039-.192.108-.261s.162-.108.26-.108h8.681c.098 0 .191.039.26.108s.108.163.108.261c0 .097-.039.191-.108.26-.069.07-.162.108-.26.108z"/><path d="m210.14 185.876h-8.681c-.048 0-.096-.01-.141-.028s-.085-.046-.12-.08c-.034-.034-.061-.075-.08-.12-.018-.044-.028-.092-.028-.141 0-.048.01-.096.028-.141.019-.045.046-.086.08-.12.035-.034.075-.061.12-.08.045-.018.093-.028.141-.027h8.681c.048-.001.096.009.141.027.045.019.085.046.12.08.034.034.061.075.08.12.018.045.028.093.028.141 0 .049-.01.097-.028.141-.019.045-.046.086-.08.12-.035.034-.075.062-.12.08s-.093.028-.141.028z"/><path d="m224.707 185.876h-8.681c-.098 0-.191-.039-.26-.108-.069-.07-.108-.163-.108-.261 0-.097.039-.191.108-.26s.162-.108.26-.108h8.681c.048-.001.096.009.141.027.044.019.085.046.119.08s.062.075.08.12c.019.045.028.093.028.141 0 .049-.009.097-.028.141-.018.045-.046.086-.08.12s-.075.062-.119.08c-.045.018-.093.028-.141.028z"/><path d="m174.386 173.784h-8.681c-.098 0-.192-.039-.261-.108s-.107-.163-.107-.261c0-.097.038-.191.107-.26.069-.07.163-.108.261-.108h8.681c.097 0 .191.038.26.108.069.069.108.163.108.26 0 .098-.039.192-.108.261s-.163.108-.26.108z"/><path d="m196.125 229.451h-30.31c-.098 0-.191-.039-.26-.108s-.108-.163-.108-.261.039-.191.108-.26c.069-.07.162-.108.26-.108h30.31c.098 0 .191.038.26.108.069.069.108.162.108.26s-.039.192-.108.261-.162.108-.26.108z"/><path d="m195.978 237.561h-30.31c-.098 0-.191-.039-.26-.108s-.108-.163-.108-.26c0-.098.039-.192.108-.261s.162-.108.26-.108h30.31c.098 0 .191.039.26.108s.108.163.108.261c0 .097-.039.191-.108.26s-.162.108-.26.108z"/><path d="m196.052 241.616h-30.311c-.048.001-.096-.009-.141-.027-.044-.019-.085-.046-.119-.08s-.062-.075-.08-.12c-.019-.045-.028-.093-.028-.141 0-.049.009-.097.028-.141.018-.045.046-.086.08-.12s.075-.062.119-.08c.045-.018.093-.028.141-.028h30.311c.048 0 .096.01.141.028.044.018.085.046.119.08.035.034.062.075.08.12.019.044.028.092.028.141 0 .048-.009.096-.028.141-.018.045-.045.086-.08.12-.034.034-.075.061-.119.08-.045.018-.093.028-.141.027z"/><path d="m209 237.635h-8.681c-.098 0-.191-.039-.26-.108s-.108-.163-.108-.261c0-.097.039-.191.108-.26s.162-.108.26-.108h8.681c.097 0 .191.039.26.108s.108.163.108.26c0 .098-.039.192-.108.261s-.163.108-.26.108z"/><path d="m209 241.616h-8.681c-.098 0-.191-.038-.26-.108-.069-.069-.108-.162-.108-.26s.039-.192.108-.261.162-.108.26-.108h8.681c.097 0 .191.039.26.108s.108.163.108.261-.039.191-.108.26c-.069.07-.163.108-.26.108z"/><path d="m223.566 237.635h-8.681c-.097 0-.191-.039-.26-.108s-.108-.163-.108-.261c0-.097.039-.191.108-.26s.163-.108.26-.108h8.681c.098 0 .191.039.26.108s.108.163.108.26c0 .098-.039.192-.108.261s-.162.108-.26.108z"/><path d="m229.305 233.506h-47.673c-.097 0-.191-.039-.26-.108s-.108-.163-.108-.261c0-.097.039-.191.108-.26s.163-.108.26-.108h47.673c.097 0 .191.039.26.108s.108.163.108.26c0 .098-.039.192-.108.261s-.163.108-.26.108z"/><path d="m174.422 233.506h-8.681c-.097 0-.191-.039-.26-.108s-.107-.163-.107-.261c0-.097.038-.191.107-.26s.163-.108.26-.108h8.681c.098 0 .192.039.261.108s.107.163.107.26c0 .098-.038.192-.107.261s-.163.108-.261.108z"/><path d="m229.305 245.745h-47.673c-.048.001-.096-.009-.141-.027-.045-.019-.085-.046-.119-.08-.035-.035-.062-.075-.08-.12-.019-.045-.028-.093-.028-.141 0-.049.009-.097.028-.142.018-.044.045-.085.08-.119.034-.034.074-.062.119-.08.045-.019.093-.028.141-.028h47.673c.097 0 .191.039.26.108s.108.163.108.261-.039.191-.108.26c-.069.07-.163.108-.26.108z"/><path d="m174.422 245.745h-8.681c-.048.001-.096-.009-.141-.027-.044-.019-.085-.046-.119-.08-.034-.035-.062-.075-.08-.12-.019-.045-.028-.093-.028-.141 0-.049.009-.097.028-.142.018-.044.046-.085.08-.119s.075-.062.119-.08c.045-.019.093-.028.141-.028h8.681c.049 0 .097.009.141.028.045.018.086.046.12.08s.061.075.08.119c.019.045.028.093.028.142 0 .048-.009.096-.028.141s-.046.085-.08.12c-.034.034-.075.061-.12.08-.044.018-.092.028-.141.027z"/></g><path d="m188.805 195.682-11.771 11.65 11.771 11.649 2.649-2.654-8.902-8.922 8.975-8.995z" fill="#408ba6"/><path d="m206.167 195.682 11.771 11.65-11.771 11.649-2.648-2.654 8.902-8.922-8.976-8.995z" fill="#408ba6"/><path d="m139.322 160.456c.812 0 1.471-.66 1.471-1.474 0-.813-.659-1.473-1.471-1.473s-1.47.66-1.47 1.473c0 .814.658 1.474 1.47 1.474z" fill="#6c63ff"/><path d="m143.243 160.456c.812 0 1.471-.66 1.471-1.474 0-.813-.659-1.473-1.471-1.473s-1.47.66-1.47 1.473c0 .814.658 1.474 1.47 1.474z" fill="#6c63ff"/><path d="m147.165 160.456c.812 0 1.47-.66 1.47-1.474 0-.813-.658-1.473-1.47-1.473-.813 0-1.471.66-1.471 1.473 0 .814.658 1.474 1.471 1.474z" fill="#6c63ff"/><path d="m258.918 161.439h-122.863v.491h122.863z" fill="#000" opacity=".1"/><path d="m243.431 191.367c.55.063 1.094.17 1.627.319l37.646-32.284-2.201-11.846 17.443-5.657 5.933 20.591c.48 1.664.406 3.438-.208 5.056-.615 1.618-1.738 2.994-3.201 3.919l-47.678 30.171c.034 2.131-.582 4.222-1.765 5.995-1.184 1.773-2.879 3.143-4.861 3.929-1.981.786-4.155.95-6.232.47s-3.959-1.581-5.395-3.156-2.358-3.55-2.644-5.663c-.287-2.112.077-4.262 1.043-6.162.965-1.901 2.486-3.462 4.36-4.477 1.875-1.015 4.014-1.436 6.133-1.205z" fill="#bf9097"/><path d="m133.548 19.1442h-132.762399c-.2084 0-.4082-.0828-.5555-.2301-.1474004-.1473-.230101-.3471-.230101-.5555 0-.2083.0827006-.4081.230101-.5555.1473-.1473.3471-.23.5555-.23h132.762399c.208 0 .408.0827.555.23.147.1474.23.3472.23.5555 0 .2084-.083.4082-.23.5555s-.347.2301-.555.2301z" fill="#a7a7a9"/><path d="m90.341 6.2846h-44.7775c-.8334 0-1.6326-.3311-2.2219-.9204-.5893-.5892-.9204-1.3885-.9204-2.2219s.3311-1.6326.9204-2.221901c.5893-.5893 1.3885-.920399 2.2219-.920399h44.7775c.834 0 1.633.331099 2.222.920399.589.589301.92 1.388501.92 2.221901s-.331 1.6327-.92 2.2219c-.589.5893-1.388.9204-2.222.9204z" fill="#ccc"/><path d="m43.4939 155.461c-.3202-.405-.5437-.877-.6536-1.382-.1099-.504-.1033-1.027.0193-1.529 2.9299-12.272 2.9298-25.062-.0002-37.334-.1225-.502-.129-1.024-.0191-1.529.11-.504.3335-.977.6536-1.382.3133-.399.7135-.722 1.1703-.943.4567-.221.958-.335 1.4655-.334h31.3223c.8004.002 1.5742.287 2.1838.806.6095.519 1.0152 1.237 1.1447 2.027 2.0432 13.27 2.0432 26.775 0 40.045-.1295.79-.5352 1.508-1.1447 2.026-.6096.519-1.3834.805-2.1838.806h-31.3223c-.5075.002-1.0087-.112-1.4655-.334-.4567-.221-.857-.544-1.1703-.943z" fill="#e6e6e6"/><path d="m86.253 101.586c-2.043-13.27-2.043-26.775 0-40.045.129-.79.535-1.508 1.144-2.0265.61-.5187 1.384-.8043 2.184-.8058h31.323c.507-.0016 1.008.1127 1.465.334.457.2214.857.5441 1.17.9436.321.4047.544.8777.654 1.3817s.103 1.027-.019 1.528c-2.93 12.273-2.93 25.063-.001 37.335.123.501.13 1.024.02 1.528-.11.505-.333.977-.654 1.382-.313.4-.713.722-1.17.944-.457.221-.958.335-1.465.334h-31.323c-.8-.002-1.574-.287-2.184-.806-.609-.519-1.015-1.237-1.144-2.027z" fill="#408ba6"/><path d="m15.5032 89.718c-.3254-.412-.5526-.892-.6643-1.405s-.105-1.044.0196-1.554c2.9783-12.474 2.9782-25.474-.0002-37.9477-.1245-.5097-.1312-1.0411-.0194-1.5537.1118-.5127.339-.9931.6644-1.4047.3184-.4059.7252-.7338 1.1895-.9587s.9737-.341 1.4895-.3394h31.8372c.8135.0016 1.6001.2918 2.2197.819.6195.5273 1.0318 1.2573 1.1635 2.0601 2.0768 13.4881 2.0768 27.2151 0 40.7031-.1317.803-.544 1.533-1.1635 2.06-.6196.527-1.4062.817-2.2197.819h-31.8372c-.5158.001-1.0253-.115-1.4896-.34-.4642-.224-.871-.552-1.1895-.958z" fill="#ff6584"/><path d="m43.876 61.698h-16.7715c-.6248-.001-1.2238-.25-1.6656-.691-.4419-.442-.6904-1.0414-.6911-1.6662v-1.0008c.0007-.6249.2492-1.2239.6911-1.6657.4418-.4419 1.0408-.6904 1.6656-.6911h16.7715c.6248.0007 1.2239.2492 1.6657.6911.4418.4418.6903 1.0408.691 1.6657v1.0008c-.0007.6248-.2492 1.2242-.691 1.6662-.4418.441-1.0409.69-1.6657.691z" fill="#fff"/><path d="m43.876 71.554h-16.7715c-.6248 0-1.2238-.249-1.6656-.691-.4419-.442-.6904-1.041-.6911-1.665v-1.001c.0007-.625.2492-1.224.6911-1.666.4418-.442 1.0408-.69 1.6656-.691h16.7715c.6248.001 1.2239.249 1.6657.691s.6903 1.041.691 1.666v1.001c-.0007.624-.2492 1.223-.691 1.665s-1.0409.691-1.6657.691z" fill="#fff"/><path d="m71.0095 126.289h-16.4371c-.6248-.001-1.2238-.25-1.6657-.691-.4418-.442-.6903-1.041-.691-1.666v-.921c.0007-.625.2492-1.224.691-1.666.4419-.441 1.0409-.69 1.6657-.691h16.4371c.6248.001 1.2239.25 1.6657.691.4418.442.6903 1.041.691 1.666v.921c-.0007.625-.2492 1.224-.691 1.666-.4418.441-1.0409.69-1.6657.691z" fill="#fff"/><path d="m71.0095 137.926h-16.4371c-.6248-.001-1.2238-.249-1.6657-.691-.4418-.442-.6903-1.041-.691-1.666v-.921c.0007-.625.2492-1.224.691-1.665.4419-.442 1.0409-.691 1.6657-.691h16.4371c.6248 0 1.2239.249 1.6657.691.4418.441.6903 1.04.691 1.665v.921c-.0007.625-.2492 1.224-.691 1.666s-1.0409.69-1.6657.691z" fill="#fff"/><path d="m71.0095 149.563h-16.4371c-.6248-.001-1.2238-.249-1.6657-.691-.4418-.442-.6903-1.041-.691-1.666v-.921c.0007-.624.2492-1.224.691-1.665.4419-.442 1.0409-.691 1.6657-.691h16.4371c.6248 0 1.2239.249 1.6657.691.4418.441.6903 1.041.691 1.665v.921c-.0007.625-.2492 1.224-.691 1.666s-1.0409.69-1.6657.691z" fill="#fff"/><path d="m111.837 79.064h-16.437c-.625-.001-1.224-.249-1.666-.691s-.69-1.041-.691-1.666v-.921c.001-.624.249-1.223.691-1.665s1.041-.691 1.666-.691h16.437c.625 0 1.224.249 1.666.691s.69 1.041.691 1.665v.921c-.001.625-.249 1.224-.691 1.666s-1.041.69-1.666.691z" fill="#fff"/><path d="m1.8139 199.993c-2.043003-13.27-2.043003-26.775 0-40.045.1296-.79.5353-1.508 1.1448-2.027.6096-.519 1.3834-.804 2.1837-.806h31.323c.5076-.001 1.0088.113 1.4656.334.4568.222.857.544 1.1702.944.3201.405.5436.877.6535 1.382.1099.504.1033 1.027-.0192 1.528-2.9301 12.272-2.9302 25.062-.0002 37.335.1227.501.1293 1.024.0194 1.528-.1098.504-.3334.977-.6535 1.382-.3132.399-.7134.722-1.1702.943-.4568.222-.958.336-1.4656.334h-31.323c-.8003-.001-1.5741-.287-2.1837-.805-.6095-.519-1.0152-1.237-1.1448-2.027z" fill="#408ba6"/><path d="m26.8262 176.501h-16.4369c-.62481-.001-1.22381-.25-1.66571-.691-.4418-.442-.6903-1.041-.691-1.666v-.921c.0007-.625.2492-1.224.691-1.665.4419-.442 1.0409-.691 1.66571-.691h16.4369c.6248 0 1.2238.249 1.6656.691.4419.441.6904 1.04.6911 1.665v.921c-.0007.625-.2492 1.224-.6911 1.666-.4418.441-1.0408.69-1.6656.691z" fill="#fff"/><path d="m26.8262 186.198h-16.4369c-.62481 0-1.22381-.249-1.66571-.691-.4418-.442-.6903-1.041-.691-1.665v-.921c.0007-.625.2492-1.224.691-1.666.4419-.442 1.0409-.69 1.66571-.691h16.4369c.6248.001 1.2238.249 1.6656.691.4419.442.6904 1.041.6911 1.666v.921c-.0007.624-.2492 1.223-.6911 1.665-.4418.442-1.0408.691-1.6656.691z" fill="#fff"/></svg>