<svg width="1121" height="687" viewBox="0 0 1121 687" fill="none" xmlns="http://www.w3.org/2000/svg">
<path d="M130.95 5.44862C132.562 3.61975 134.231 1.79983 135.912 0.0388489L137.672 1.71876C136.012 3.45649 134.365 5.25228 132.775 7.05646L130.95 5.44862Z" fill="#3F3D56"/>
<path d="M357.512 280.161C359.588 278.948 361.668 277.675 363.693 276.378L365.006 278.426C362.952 279.741 360.844 281.032 358.739 282.261L357.512 280.161Z" fill="#3F3D56"/>
<path d="M97 372.205H77V398.205H97V372.205Z" fill="#3F3D56"/>
<path d="M333.527 571.142L319.385 557L301 575.385L315.142 589.527L333.527 571.142Z" fill="#3F3D56"/>
<path d="M351.263 90.084L337.121 75.9419L318.737 94.3267L332.879 108.469L351.263 90.084Z" fill="#3F3D56"/>
<path d="M420.483 682.802C418.11 682.802 415.79 682.098 413.816 680.779C411.843 679.461 410.305 677.586 409.397 675.394C408.488 673.201 408.251 670.788 408.714 668.46C409.177 666.133 410.32 663.995 411.998 662.316C413.676 660.638 415.814 659.495 418.142 659.032C420.47 658.569 422.883 658.807 425.075 659.715C427.268 660.623 429.142 662.161 430.461 664.135C431.78 666.108 432.483 668.428 432.483 670.802C432.48 673.983 431.214 677.033 428.965 679.283C426.715 681.533 423.665 682.798 420.483 682.802V682.802ZM420.483 660.802C418.505 660.802 416.572 661.388 414.928 662.487C413.283 663.586 412.001 665.147 411.245 666.975C410.488 668.802 410.29 670.813 410.675 672.752C411.061 674.692 412.014 676.474 413.412 677.873C414.811 679.271 416.593 680.224 418.532 680.609C420.472 680.995 422.483 680.797 424.31 680.04C426.137 679.283 427.699 678.002 428.798 676.357C429.897 674.713 430.483 672.779 430.483 670.802C430.48 668.15 429.426 665.609 427.551 663.734C425.676 661.859 423.135 660.805 420.483 660.802V660.802Z" fill="#2F2E41"/>
<path d="M552.311 39.0914H532.57V19.3503H552.311V39.0914ZM534.088 37.5728H550.792V20.8688H534.088V37.5728Z" fill="#3F3D56"/>
<path d="M13.9548 590.171L0.489685 575.735L14.9259 562.27L28.391 576.706L13.9548 590.171ZM2.636 575.81L14.0295 588.025L26.2448 576.632L14.8512 564.416L2.636 575.81Z" fill="#2F2E41"/>
<path d="M240 204.205C249.941 204.205 258 196.146 258 186.205C258 176.264 249.941 168.205 240 168.205C230.059 168.205 222 176.264 222 186.205C222 196.146 230.059 204.205 240 204.205Z" fill="#408BA6"/>
<path d="M522 336C528.075 336 533 331.075 533 325C533 318.925 528.075 314 522 314C515.925 314 511 318.925 511 325C511 331.075 515.925 336 522 336Z" fill="#408BA6"/>
<path d="M388 385C392.971 385 397 380.971 397 376C397 371.029 392.971 367 388 367C383.029 367 379 371.029 379 376C379 380.971 383.029 385 388 385Z" fill="#413F47"/>
<path d="M699.46 9.40977C701.072 7.5809 702.741 5.76098 704.422 4L706.182 5.67992C704.522 7.41765 702.875 9.21344 701.285 11.0176L699.46 9.40977Z" fill="#3F3D56"/>
<path d="M926.022 284.123C928.098 282.909 930.178 281.637 932.204 280.339L933.516 282.387C931.463 283.702 929.354 284.993 927.25 286.222L926.022 284.123Z" fill="#3F3D56"/>
<path d="M676 336H656V362H676V336Z" fill="#3F3D56"/>
<path d="M902.037 453.103L887.895 438.961L869.51 457.346L883.652 471.488L902.037 453.103Z" fill="#3F3D56"/>
<path d="M919.774 94.0452L905.632 79.903L887.247 98.2878L901.389 112.43L919.774 94.0452Z" fill="#3F3D56"/>
<path d="M988.994 686.763C986.62 686.763 984.3 686.059 982.327 684.74C980.353 683.422 978.815 681.548 977.907 679.355C976.999 677.162 976.761 674.749 977.224 672.422C977.687 670.094 978.83 667.956 980.508 666.277C982.187 664.599 984.325 663.456 986.653 662.993C988.98 662.53 991.393 662.768 993.586 663.676C995.779 664.584 997.653 666.123 998.971 668.096C1000.29 670.069 1000.99 672.389 1000.99 674.763C1000.99 677.944 999.725 680.994 997.475 683.244C995.225 685.494 992.175 686.759 988.994 686.763V686.763ZM988.994 664.763C987.016 664.763 985.082 665.349 983.438 666.448C981.793 667.547 980.512 669.109 979.755 670.936C978.998 672.763 978.8 674.774 979.186 676.714C979.572 678.653 980.524 680.435 981.923 681.834C983.321 683.232 985.103 684.185 987.043 684.571C988.983 684.956 990.993 684.758 992.82 684.002C994.648 683.245 996.21 681.963 997.308 680.318C998.407 678.674 998.994 676.741 998.994 674.763C998.991 672.112 997.936 669.57 996.061 667.695C994.187 665.82 991.645 664.766 988.994 664.763V664.763Z" fill="#2F2E41"/>
<path d="M1120.82 43.0526H1101.08V23.3114H1120.82V43.0526ZM1102.6 41.534H1119.3V24.8299H1102.6V41.534Z" fill="#3F3D56"/>
<path d="M582.465 594.133L569 579.696L583.436 566.231L596.901 580.668L582.465 594.133ZM571.146 579.771L582.54 591.986L594.755 580.593L583.362 568.378L571.146 579.771Z" fill="#2F2E41"/>
<path d="M808.51 208.167C818.451 208.167 826.51 200.108 826.51 190.167C826.51 180.225 818.451 172.167 808.51 172.167C798.569 172.167 790.51 180.225 790.51 190.167C790.51 200.108 798.569 208.167 808.51 208.167Z" fill="#408BA6"/>
<path d="M1054 390C1063.94 390 1072 381.941 1072 372C1072 362.059 1063.94 354 1054 354C1044.06 354 1036 362.059 1036 372C1036 381.941 1044.06 390 1054 390Z" fill="#408BA6"/>
<path d="M791 602C800.941 602 809 593.941 809 584C809 574.059 800.941 566 791 566C781.059 566 773 574.059 773 584C773 593.941 781.059 602 791 602Z" fill="#413F47"/>
</svg>
