<?xml version="1.0" encoding="UTF-8" standalone="no"?>
<svg
   xmlns:dc="http://purl.org/dc/elements/1.1/"
   xmlns:cc="http://creativecommons.org/ns#"
   xmlns:rdf="http://www.w3.org/1999/02/22-rdf-syntax-ns#"
   xmlns:svg="http://www.w3.org/2000/svg"
   xmlns="http://www.w3.org/2000/svg"
   id="svg16"
   version="1.1"
   height="1024"
   width="1024">
  <metadata
     id="metadata22">
    <rdf:RDF>
      <cc:Work
         rdf:about="">
        <dc:format>image/svg+xml</dc:format>
        <dc:type
           rdf:resource="http://purl.org/dc/dcmitype/StillImage" />
      </cc:Work>
    </rdf:RDF>
  </metadata>
  <defs
     id="defs20" />
  <style
     id="style2"><![CDATA[  #icon * { fill: #3c8ba8 !important; } ]]></style>
  <g
     id="g7">
    <title
       id="title4">background</title>
    <rect
       x="-1"
       y="-1"
       width="582"
       height="402"
       id="canvas_background"
       fill="none" />
  </g>
  <g
     id="g14">
    <title
       id="title9">Layer 1</title>
    <path
       id="path4"
       fill="#413f47"
       d="m925.1,674.4l0,-324.8c0,-47.1 -25.1,-90.6 -65.9,-114.1l-281.3,-162.5c-40.8,-23.5 -91,-23.5 -131.8,0l-281.3,162.4c-40.8,23.6 -65.9,67.1 -65.9,114.2l0,324.9c0,47.1 25.1,90.6 65.9,114.1l281.3,162.4c40.8,23.5 91,23.5 131.8,0l281.3,-162.4c40.8,-23.6 65.9,-67.1 65.9,-114.2z" />
    <g
       id="icon">
      <path
         id="path6"
         d="m512,737c124.5,0 225,-100.5 225,-225s-100.5,-225 -225,-225s-225,100.5 -225,225c0,124.5 100.5,225 225,225zm151,-229.5l-94,-81.5c-2.5,-2.5 -3,-6 -0.5,-8.5c2,-2 6,-2.5 8,-0.5l103,90.5c2.5,2.5 2.5,6.5 0,9l-102.5,90.5c-2.5,2 -6,2 -8,-0.5c-2.5,-2.5 -2.5,-6.5 0.5,-8.5l94,-81.5c2.5,-2.5 2.5,-6.5 -0.5,-9zm-185.5,106.5l55.5,-206.5c1,-3 4,-5 7,-4s5,4 4,7l-55.5,206c-1,3 -4,5 -7,4c-3,-0.5 -4.5,-3.5 -4,-6.5zm-133.5,-106.5l103,-90.5c2.5,-2 6,-2 8,0.5c2.5,2.5 2.5,6.5 -0.5,8.5l-93.5,81.5c-2.5,2.5 -2.5,6.5 0,9l94,81.5c2.5,2.5 3,6 0.5,8.5c-2,2 -6,2.5 -8,0.5l-103.5,-90.5c-2.5,-2.5 -2.5,-6.5 0,-9z" />
    </g>
  </g>
</svg>
