<!--?xml version="1.0" encoding="UTF-8" standalone="no"?-->
<svg viewport-fill="#3c8ba8" xmlns:dc="http://purl.org/dc/elements/1.1/" xmlns:cc="http://creativecommons.org/ns#" xmlns:rdf="http://www.w3.org/1999/02/22-rdf-syntax-ns#" xmlns:svg="http://www.w3.org/2000/svg" xmlns="http://www.w3.org/2000/svg" xmlns:xlink="http://www.w3.org/1999/xlink" id="svg6" viewBox="0 0 1024 768" height="768px" width="1024px" version="1.1">
  
  <defs id="defs10"></defs>
  <style><![CDATA[   #title path, #tagline path, #letter path, #title polygon, #tagline polygon, #letter polygon{ fill: #413f47 !important; } #icon *{ fill: #413f47 !important; } ]]> </style><g id="logo-group"><rect x="0" y="0" width="1024" height="768" style="fill: #3c8ba8" />
    <g id="icon" transform="translate(0 279.7437762283815) translate(250.59938019850193 66.50270730383201) scale(1.0014441595122) translate(-266.92494 39.672)"><svg x="264.54954" y="-43.446" width="47.508" height="47.508" viewBox="0 0 100 100"><g><path d="M50,95c24.9,0,45-20.1,45-45C95,25.1,74.9,5,50,5S5,25.1,5,50C5,74.9,25.1,95,50,95z M80.2,49.1L61.4,32.8   c-0.5-0.5-0.6-1.2-0.1-1.7c0.4-0.4,1.2-0.5,1.6-0.1l20.6,18.1c0.5,0.5,0.5,1.3,0,1.8L63,69c-0.5,0.4-1.2,0.4-1.6-0.1   c-0.5-0.5-0.5-1.3,0.1-1.7l18.8-16.3C80.8,50.4,80.8,49.6,80.2,49.1z M43.1,70.4l11.1-41.3c0.2-0.6,0.8-1,1.4-0.8s1,0.8,0.8,1.4   L45.3,70.9c-0.2,0.6-0.8,1-1.4,0.8C43.3,71.6,43,71,43.1,70.4z M16.4,49.1L37,31c0.5-0.4,1.2-0.4,1.6,0.1c0.5,0.5,0.5,1.3-0.1,1.7   L19.8,49.1c-0.5,0.5-0.5,1.3,0,1.8l18.8,16.3c0.5,0.5,0.6,1.2,0.1,1.7c-0.4,0.4-1.2,0.5-1.6,0.1L16.4,50.9   C15.9,50.4,15.9,49.6,16.4,49.1z"></path></g></svg></g>
    <g id="title" style="font-style:normal;font-weight:700;font-size:72px;line-height:1;font-family:'Comfortaa Bold Alt1';font-variant-ligatures:none;text-align:center;text-anchor:middle" aria-label="okcoded.com">
      <path id="path14" style="font-style: normal; font-weight: 700; font-size: 72px; line-height: 1; font-family: &quot;Comfortaa Bold Alt1&quot;; font-variant-ligatures: none; text-align: center; text-anchor: middle; display: none;" d="m 296.94894,-37.08 c -3.024,-1.728 -6.408,-2.592 -10.152,-2.592 -3.888,0 -7.272,0.864 -10.296,2.592 -3.024,1.728 -5.4,4.032 -7.056,7.056 -1.728,3.024 -2.52,6.48 -2.52,10.368 0,3.888 0.792,7.272 2.52,10.296 1.656,3.024 4.032,5.4 7.056,7.128 3.024,1.728 6.408,2.52 10.296,2.52 3.816,0 7.2,-0.792 10.224,-2.52 3.024,-1.728 5.328,-4.104 7.056,-7.128 1.656,-3.024 2.52,-6.408 2.52,-10.296 0,-3.888 -0.864,-7.344 -2.592,-10.368 -1.728,-3.024 -4.032,-5.328 -7.056,-7.056 z m -16.776,5.616 c 1.944,-1.152 4.176,-1.728 6.624,-1.728 2.448,0 4.608,0.576 6.552,1.728 1.944,1.152 3.456,2.808 4.536,4.824 1.08,2.088 1.656,4.392 1.656,6.984 0,2.592 -0.576,4.968 -1.656,6.984 -1.08,2.016 -2.592,3.6 -4.536,4.752 -1.944,1.152 -4.104,1.728 -6.552,1.728 -2.448,0 -4.68,-0.576 -6.624,-1.728 -1.944,-1.152 -3.456,-2.736 -4.536,-4.752 -1.152,-2.016 -1.656,-4.392 -1.656,-6.984 0,-2.592 0.504,-4.896 1.656,-6.984 1.08,-2.016 2.592,-3.672 4.536,-4.824 z"></path>
      <path id="path16" style="font-style: normal; font-weight: 700; font-size: 72px; line-height: 1; font-family: &quot;Comfortaa Bold Alt1&quot;; font-variant-ligatures: none; text-align: center; text-anchor: middle;" d="m 348.12519,-3.024 c 0,-0.864 -0.288,-1.584 -0.792,-2.16 l -13.968,-17.136 13.248,-11.808 c 0.72,-0.576 1.152,-1.44 1.152,-2.448 0,-0.864 -0.36,-1.584 -0.936,-2.232 -0.648,-0.72 -1.44,-1.152 -2.448,-1.152 -0.864,0 -1.656,0.36 -2.232,0.936 l -17.496,15.624 v -29.304 c 0,-1.008 -0.36,-1.872 -1.008,-2.52 -0.648,-0.648 -1.512,-1.008 -2.52,-1.008 -1.08,0 -1.944,0.36 -2.592,1.008 -0.648,0.648 -0.936,1.512 -0.936,2.52 v 49.176 c 0,1.08 0.288,1.944 0.936,2.592 0.648,0.648 1.512,0.936 2.592,0.936 1.008,0 1.872,-0.288 2.52,-0.936 0.648,-0.648 1.008,-1.512 1.008,-2.592 v -11.016 l 3.6,-3.168 13.68,16.92 c 0.648,0.864 1.512,1.296 2.592,1.296 0.792,0 1.584,-0.288 2.304,-0.864 0.864,-0.72 1.296,-1.584 1.296,-2.664 z" transform="translate(0 279.7437762283815) translate(307.4387970098077 49.91879202230997) scale(1.0014441595122) translate(-317.59719 56.232)"></path>
      <path id="path18" style="font-style: normal; font-weight: 700; font-size: 72px; line-height: 1; font-family: &quot;Comfortaa Bold Alt1&quot;; font-variant-ligatures: none; text-align: center; text-anchor: middle;" d="m 386.47081,-33.192 c -3.744,-4.32 -8.496,-6.48 -14.112,-6.48 -3.744,0 -7.128,0.864 -10.08,2.592 -3.024,1.728 -5.328,4.104 -6.984,7.128 -1.656,3.024 -2.448,6.48 -2.448,10.296 0,3.744 0.792,7.2 2.52,10.224 1.728,3.024 4.104,5.4 7.128,7.128 3.024,1.728 6.408,2.592 10.224,2.592 5.184,0 9.504,-1.584 12.96,-4.824 0.576,-0.576 0.864,-1.224 0.864,-1.944 0,-0.936 -0.504,-1.8 -1.368,-2.592 -0.576,-0.432 -1.224,-0.648 -1.872,-0.648 -0.864,0 -1.8,0.36 -2.664,1.008 -2.016,1.728 -4.68,2.52 -7.92,2.52 -2.52,0 -4.752,-0.576 -6.696,-1.728 -1.944,-1.152 -3.456,-2.736 -4.536,-4.752 -1.08,-2.016 -1.584,-4.392 -1.584,-6.984 0,-4.032 1.152,-7.344 3.456,-9.792 2.304,-2.448 5.256,-3.744 9,-3.744 1.8,0 3.384,0.36 4.824,0.936 1.44,0.576 2.736,1.512 3.96,2.808 0.72,0.864 1.656,1.296 2.808,1.296 0.576,0 1.152,-0.144 1.656,-0.504 1.008,-0.72 1.584,-1.584 1.584,-2.664 0,-0.72 -0.288,-1.296 -0.72,-1.872 z" transform="translate(0 279.7437762283815) translate(345.7436555623687 66.50270730383201) scale(1.0014441595122) translate(-352.84681 39.672)"></path>
      <path id="path20" style="font-style: normal; font-weight: 700; font-size: 72px; line-height: 1; font-family: &quot;Comfortaa Bold Alt1&quot;; font-variant-ligatures: none; text-align: center; text-anchor: middle;" d="m 426.18331,-37.08 c -3.024,-1.728 -6.408,-2.592 -10.152,-2.592 -3.888,0 -7.272,0.864 -10.296,2.592 -3.024,1.728 -5.4,4.032 -7.056,7.056 -1.728,3.024 -2.52,6.48 -2.52,10.368 0,3.888 0.792,7.272 2.52,10.296 1.656,3.024 4.032,5.4 7.056,7.128 3.024,1.728 6.408,2.52 10.296,2.52 3.816,0 7.2,-0.792 10.224,-2.52 3.024,-1.728 5.328,-4.104 7.056,-7.128 1.656,-3.024 2.52,-6.408 2.52,-10.296 0,-3.888 -0.864,-7.344 -2.592,-10.368 -1.728,-3.024 -4.032,-5.328 -7.056,-7.056 z m -16.776,5.616 c 1.944,-1.152 4.176,-1.728 6.624,-1.728 2.448,0 4.608,0.576 6.552,1.728 1.944,1.152 3.456,2.808 4.536,4.824 1.08,2.088 1.656,4.392 1.656,6.984 0,2.592 -0.576,4.968 -1.656,6.984 -1.08,2.016 -2.592,3.6 -4.536,4.752 -1.944,1.152 -4.104,1.728 -6.552,1.728 -2.448,0 -4.68,-0.576 -6.624,-1.728 -1.944,-1.152 -3.456,-2.736 -4.536,-4.752 -1.152,-2.016 -1.656,-4.392 -1.656,-6.984 0,-2.592 0.504,-4.896 1.656,-6.984 1.08,-2.016 2.592,-3.672 4.536,-4.824 z" transform="translate(0 279.7437762283815) translate(392.1230381997775 66.50270730383201) scale(1.0014441595122) translate(-396.15931 39.672)"></path>
      <path id="path22" style="font-style: normal; font-weight: 700; font-size: 72px; line-height: 1; font-family: &quot;Comfortaa Bold Alt1&quot;; font-variant-ligatures: none; text-align: center; text-anchor: middle;" d="m 444.74356,-19.728 c 0,3.816 0.864,7.2 2.592,10.224 1.728,3.024 4.176,5.472 7.2,7.2 3.024,1.728 6.408,2.592 10.08,2.592 h 0.288 0.144 15.912 c 1.008,0 1.8,-0.288 2.448,-0.936 0.72,-0.72 1.008,-1.512 1.008,-2.448 v -15.336 -1.296 -32.832 c 0,-1.08 -0.288,-1.944 -1.008,-2.664 -0.648,-0.648 -1.512,-1.008 -2.664,-1.008 -1.008,0 -1.872,0.36 -2.592,1.008 -0.72,0.72 -1.08,1.584 -1.08,2.664 v 19.44 c -1.656,-2.016 -3.672,-3.6 -6.12,-4.824 -2.376,-1.152 -4.968,-1.728 -7.776,-1.728 -3.456,0 -6.552,0.864 -9.36,2.592 -2.808,1.8 -5.04,4.176 -6.624,7.2 -1.584,3.024 -2.448,6.48 -2.448,10.152 z m 7.056,0 c 0,-2.52 0.576,-4.824 1.728,-6.84 1.152,-2.016 2.664,-3.672 4.608,-4.824 1.944,-1.152 4.104,-1.8 6.48,-1.8 2.448,0 4.608,0.648 6.552,1.8 1.944,1.152 3.456,2.808 4.536,4.824 1.152,2.016 1.656,4.32 1.656,6.84 0,2.592 -0.504,4.896 -1.656,6.912 -1.08,2.088 -2.592,3.744 -4.536,4.896 -1.944,1.152 -4.104,1.728 -6.552,1.728 -2.376,0 -4.536,-0.576 -6.48,-1.728 -1.944,-1.152 -3.456,-2.808 -4.608,-4.896 -1.152,-2.016 -1.728,-4.32 -1.728,-6.912 z" transform="translate(0 279.7437762283815) translate(443.78178408509467 49.91879202230997) scale(1.0014441595122) translate(-444.74356 56.232)"></path>
      <path id="path24" style="font-style: normal; font-weight: 700; font-size: 72px; line-height: 1; font-family: &quot;Comfortaa Bold Alt1&quot;; font-variant-ligatures: none; text-align: center; text-anchor: middle;" d="m 531.87256,-18 c 0.576,-0.576 0.936,-1.368 0.936,-2.304 0,-3.744 -0.72,-7.128 -2.16,-10.08 -1.44,-2.88 -3.528,-5.184 -6.192,-6.84 -2.736,-1.584 -5.904,-2.448 -9.576,-2.448 -3.744,0 -7.128,0.864 -10.08,2.592 -2.952,1.728 -5.256,4.104 -6.912,7.128 -1.656,3.024 -2.448,6.48 -2.448,10.296 0,3.888 0.864,7.272 2.592,10.296 1.728,3.024 4.176,5.4 7.344,7.128 3.096,1.728 6.624,2.52 10.584,2.52 2.16,0 4.464,-0.36 6.912,-1.224 2.448,-0.792 4.464,-1.872 6.12,-3.168 0.72,-0.576 1.152,-1.296 1.152,-2.16 0,-0.864 -0.432,-1.728 -1.296,-2.448 -0.576,-0.432 -1.296,-0.72 -2.16,-0.72 -0.936,0 -1.728,0.288 -2.376,0.792 -1.008,0.792 -2.304,1.44 -3.888,1.944 -1.584,0.576 -3.024,0.792 -4.464,0.792 -3.672,0 -6.768,-1.008 -9.288,-3.096 -2.52,-2.016 -4.032,-4.752 -4.536,-8.136 h 27.36 c 0.936,0 1.728,-0.288 2.376,-0.864 z m -25.56,-12.6 c 2.16,-1.872 5.04,-2.88 8.568,-2.88 3.168,0 5.688,1.008 7.704,2.88 1.944,1.944 3.168,4.536 3.6,7.704 h -23.976 c 0.576,-3.168 1.944,-5.76 4.104,-7.704 z" transform="translate(0 279.7437762283815) translate(497.5563311184212 66.50270730383201) scale(1.0014441595122) translate(-495.44056 39.672)"></path>
      <path id="path26" style="font-style: normal; font-weight: 700; font-size: 72px; line-height: 1; font-family: &quot;Comfortaa Bold Alt1&quot;; font-variant-ligatures: none; text-align: center; text-anchor: middle;" d="m 538.68106,-19.728 c 0,3.816 0.864,7.2 2.592,10.224 1.728,3.024 4.176,5.472 7.2,7.2 3.024,1.728 6.408,2.592 10.08,2.592 h 0.288 0.144 15.912 c 1.008,0 1.8,-0.288 2.448,-0.936 0.72,-0.72 1.008,-1.512 1.008,-2.448 v -15.336 -1.296 -32.832 c 0,-1.08 -0.288,-1.944 -1.008,-2.664 -0.648,-0.648 -1.512,-1.008 -2.664,-1.008 -1.008,0 -1.872,0.36 -2.592,1.008 -0.72,0.72 -1.08,1.584 -1.08,2.664 v 19.44 c -1.656,-2.016 -3.672,-3.6 -6.12,-4.824 -2.376,-1.152 -4.968,-1.728 -7.776,-1.728 -3.456,0 -6.552,0.864 -9.36,2.592 -2.808,1.8 -5.04,4.176 -6.624,7.2 -1.584,3.024 -2.448,6.48 -2.448,10.152 z m 7.056,0 c 0,-2.52 0.576,-4.824 1.728,-6.84 1.152,-2.016 2.664,-3.672 4.608,-4.824 1.944,-1.152 4.104,-1.8 6.48,-1.8 2.448,0 4.608,0.648 6.552,1.8 1.944,1.152 3.456,2.808 4.536,4.824 1.152,2.016 1.656,4.32 1.656,6.84 0,2.592 -0.504,4.896 -1.656,6.912 -1.08,2.088 -2.592,3.744 -4.536,4.896 -1.944,1.152 -4.104,1.728 -6.552,1.728 -2.376,0 -4.536,-0.576 -6.48,-1.728 -1.944,-1.152 -3.456,-2.808 -4.608,-4.896 -1.152,-2.016 -1.728,-4.32 -1.728,-6.912 z" transform="translate(0 279.7437762283815) translate(543.863609776345 49.91879202230997) scale(1.0014441595122) translate(-538.68106 56.232)"></path>
      <path id="path28" style="font-style: normal; font-weight: 700; font-size: 72px; line-height: 1; font-family: &quot;Comfortaa Bold Alt1&quot;; font-variant-ligatures: none; text-align: center; text-anchor: middle;" d="m 596.93806,-7.344 c -1.008,-1.008 -2.16,-1.512 -3.456,-1.512 -1.368,0 -2.52,0.504 -3.528,1.512 -1.008,1.008 -1.44,2.16 -1.44,3.528 0,1.368 0.432,2.52 1.44,3.528 1.008,1.008 2.16,1.44 3.528,1.44 1.368,0 2.52,-0.432 3.528,-1.44 0.936,-1.008 1.44,-2.16 1.44,-3.528 0,-1.368 -0.504,-2.52 -1.512,-3.528 z" transform="translate(0 279.7437762283815) translate(596.7729090558531 97.36321052335995) scale(1.0014441595122) translate(-588.51406 8.856)"></path>
      <path id="path30" style="font-style: normal; font-weight: 700; font-size: 72px; line-height: 1; font-family: &quot;Comfortaa Bold Alt1&quot;; font-variant-ligatures: none; text-align: center; text-anchor: middle;" d="m 640.15831,-33.192 c -3.744,-4.32 -8.496,-6.48 -14.112,-6.48 -3.744,0 -7.128,0.864 -10.08,2.592 -3.024,1.728 -5.328,4.104 -6.984,7.128 -1.656,3.024 -2.448,6.48 -2.448,10.296 0,3.744 0.792,7.2 2.52,10.224 1.728,3.024 4.104,5.4 7.128,7.128 3.024,1.728 6.408,2.592 10.224,2.592 5.184,0 9.504,-1.584 12.96,-4.824 0.576,-0.576 0.864,-1.224 0.864,-1.944 0,-0.936 -0.504,-1.8 -1.368,-2.592 -0.576,-0.432 -1.224,-0.648 -1.872,-0.648 -0.864,0 -1.8,0.36 -2.664,1.008 -2.016,1.728 -4.68,2.52 -7.92,2.52 -2.52,0 -4.752,-0.576 -6.696,-1.728 -1.944,-1.152 -3.456,-2.736 -4.536,-4.752 -1.08,-2.016 -1.584,-4.392 -1.584,-6.984 0,-4.032 1.152,-7.344 3.456,-9.792 2.304,-2.448 5.256,-3.744 9,-3.744 1.8,0 3.384,0.36 4.824,0.936 1.44,0.576 2.736,1.512 3.96,2.808 0.72,0.864 1.656,1.296 2.808,1.296 0.576,0 1.152,-0.144 1.656,-0.504 1.008,-0.72 1.584,-1.584 1.584,-2.664 0,-0.72 -0.288,-1.296 -0.72,-1.872 z" transform="translate(0 279.7437762283815) translate(617.8235156498395 66.50270730383201) scale(1.0014441595122) translate(-606.53431 39.672)"></path>
      <path id="path32" style="font-style: normal; font-weight: 700; font-size: 72px; line-height: 1; font-family: &quot;Comfortaa Bold Alt1&quot;; font-variant-ligatures: none; text-align: center; text-anchor: middle;" d="m 679.87081,-37.08 c -3.024,-1.728 -6.408,-2.592 -10.152,-2.592 -3.888,0 -7.272,0.864 -10.296,2.592 -3.024,1.728 -5.4,4.032 -7.056,7.056 -1.728,3.024 -2.52,6.48 -2.52,10.368 0,3.888 0.792,7.272 2.52,10.296 1.656,3.024 4.032,5.4 7.056,7.128 3.024,1.728 6.408,2.52 10.296,2.52 3.816,0 7.2,-0.792 10.224,-2.52 3.024,-1.728 5.328,-4.104 7.056,-7.128 1.656,-3.024 2.52,-6.408 2.52,-10.296 0,-3.888 -0.864,-7.344 -2.592,-10.368 -1.728,-3.024 -4.032,-5.328 -7.056,-7.056 z m -16.776,5.616 c 1.944,-1.152 4.176,-1.728 6.624,-1.728 2.448,0 4.608,0.576 6.552,1.728 1.944,1.152 3.456,2.808 4.536,4.824 1.08,2.088 1.656,4.392 1.656,6.984 0,2.592 -0.576,4.968 -1.656,6.984 -1.08,2.016 -2.592,3.6 -4.536,4.752 -1.944,1.152 -4.104,1.728 -6.552,1.728 -2.448,0 -4.68,-0.576 -6.624,-1.728 -1.944,-1.152 -3.456,-2.736 -4.536,-4.752 -1.152,-2.016 -1.656,-4.392 -1.656,-6.984 0,-2.592 0.504,-4.896 1.656,-6.984 1.08,-2.016 2.592,-3.672 4.536,-4.824 z" transform="translate(0 279.7437762283815) translate(664.2028982872481 66.50270730383201) scale(1.0014441595122) translate(-649.84681 39.672)"></path>
      <path id="path34" style="font-style: normal; font-weight: 700; font-size: 72px; line-height: 1; font-family: &quot;Comfortaa Bold Alt1&quot;; font-variant-ligatures: none; text-align: center; text-anchor: middle;" d="m 751.99906,-35.64 c -2.592,-2.736 -5.976,-4.104 -10.08,-4.104 -14.904,0 -22.68,0 -23.4,0 h -0.576 -13.968 c -0.936,0 -1.8,0.36 -2.448,1.008 -0.72,0.72 -1.008,1.512 -1.008,2.448 0,0.072 0,0.216 0,0.36 0,0.144 0,0.216 0,0.288 V -3.6 c 0,1.08 0.288,1.944 1.008,2.664 0.72,0.72 1.584,1.008 2.664,1.008 1.08,0 1.944,-0.288 2.664,-1.008 0.648,-0.72 1.008,-1.584 1.008,-2.664 v -20.304 c 0,-2.664 0.792,-4.824 2.376,-6.624 1.584,-1.728 3.672,-2.592 6.264,-2.592 2.448,0 4.392,0.792 5.832,2.304 1.44,1.512 2.232,3.744 2.232,6.624 V -3.6 c 0,1.08 0.288,1.944 1.008,2.664 0.72,0.72 1.584,1.008 2.664,1.008 1.08,0 1.944,-0.288 2.664,-1.008 0.648,-0.72 1.008,-1.584 1.008,-2.664 v -20.304 c 0,-2.664 0.792,-4.824 2.376,-6.624 1.584,-1.728 3.672,-2.592 6.192,-2.592 2.448,0 4.392,0.792 5.832,2.304 1.44,1.512 2.232,3.744 2.232,6.624 V -3.6 c 0,1.08 0.288,1.944 1.008,2.664 0.72,0.72 1.584,1.008 2.664,1.008 1.08,0 1.944,-0.288 2.664,-1.008 0.648,-0.72 1.008,-1.584 1.008,-2.664 v -20.592 c 0,-4.896 -1.296,-8.712 -3.888,-11.448 z" transform="translate(0 279.7437762283815) translate(717.9526595776267 66.43060332434712) scale(1.0014441595122) translate(-700.51906 39.744)"></path>
    </g>
    <g id="tagline" style="font-style:normal;font-weight:600;font-size:32px;line-height:1;font-family:Raleway;font-variant-ligatures:none;text-align:center;text-anchor:middle" aria-label="Better design. Better results">
      <path id="path37" style="font-style: normal; font-weight: 600; font-size: 32px; line-height: 1; font-family: Raleway; font-variant-ligatures: none; text-align: center; text-anchor: middle;" d="m 320.75975,-5.856 q 0,1.376 -0.576,2.464 -0.544,1.088 -1.504,1.856 -0.928,0.736 -2.208,1.152 -1.28,0.384 -2.72,0.384 h -10.848 v -22.72 h 11.712 q 1.184,0 2.144,0.512 0.96,0.512 1.632,1.344 0.672,0.8 1.024,1.856 0.384,1.024 0.384,2.08 0,1.664 -0.864,3.136 -0.832,1.44 -2.4,2.144 1.952,0.576 3.072,2.112 1.152,1.504 1.152,3.68 z m -3.68,-0.672 q 0,-0.704 -0.256,-1.344 -0.224,-0.64 -0.64,-1.12 -0.384,-0.48 -0.96,-0.768 -0.576,-0.288 -1.248,-0.288 h -7.488 v 6.944 h 7.264 q 0.704,0 1.312,-0.256 0.608,-0.288 1.056,-0.736 0.448,-0.48 0.704,-1.088 0.256,-0.64 0.256,-1.344 z m -10.592,-13.088 v 6.688 h 6.592 q 0.672,0 1.216,-0.256 0.576,-0.256 0.992,-0.672 0.448,-0.448 0.672,-1.056 0.256,-0.608 0.256,-1.344 0,-1.472 -0.832,-2.4 -0.832,-0.96 -2.112,-0.96 z" transform="translate(0 359.6254317493085) translate(354.57893750000005 56.32) scale(0.75) translate(-302.90375 22.72)"></path>
      <path id="path39" style="font-style: normal; font-weight: 600; font-size: 32px; line-height: 1; font-family: Raleway; font-variant-ligatures: none; text-align: center; text-anchor: middle;" d="m 331.66475,0.32 q -1.952,0 -3.552,-0.672 -1.6,-0.704 -2.752,-1.888 -1.12,-1.184 -1.76,-2.752 -0.608,-1.568 -0.608,-3.328 0,-1.76 0.608,-3.328 0.64,-1.6 1.76,-2.784 1.152,-1.216 2.752,-1.888 1.6,-0.704 3.584,-0.704 1.952,0 3.52,0.704 1.6,0.704 2.72,1.888 1.12,1.152 1.696,2.72 0.608,1.536 0.608,3.232 0,0.384 -0.032,0.736 -0.032,0.32 -0.064,0.544 h -13.408 q 0.096,1.12 0.512,2.016 0.448,0.896 1.12,1.568 0.704,0.64 1.568,0.992 0.896,0.352 1.856,0.352 0.704,0 1.376,-0.16 0.704,-0.192 1.28,-0.512 0.576,-0.352 1.024,-0.832 0.448,-0.48 0.704,-1.056 l 3.008,0.864 q -0.864,1.888 -2.88,3.104 -1.984,1.184 -4.64,1.184 z m 5.088,-9.952 q -0.096,-1.056 -0.544,-1.952 -0.416,-0.896 -1.088,-1.504 -0.672,-0.64 -1.568,-0.992 -0.896,-0.352 -1.888,-0.352 -0.992,0 -1.888,0.352 -0.864,0.352 -1.536,0.992 -0.672,0.608 -1.088,1.504 -0.416,0.896 -0.512,1.952 z" transform="translate(0 359.6254317493085) translate(369.64568750000007 60.592) scale(0.75) translate(-322.99275 17.024)"></path>
      <path id="path41" style="font-style: normal; font-weight: 600; font-size: 32px; line-height: 1; font-family: Raleway; font-variant-ligatures: none; text-align: center; text-anchor: middle;" d="m 352.33025,-0.864 q -0.672,0.32 -1.856,0.736 -1.184,0.384 -2.528,0.384 -0.832,0 -1.568,-0.224 -0.736,-0.224 -1.312,-0.672 -0.544,-0.448 -0.864,-1.152 -0.32,-0.736 -0.32,-1.76 v -10.464 h -2.208 v -2.72 h 2.208 v -5.504 h 3.52 v 5.504 h 3.648 v 2.72 h -3.648 v 9.344 q 0.064,0.896 0.544,1.312 0.512,0.384 1.248,0.384 0.736,0 1.408,-0.256 0.672,-0.256 0.992,-0.416 z" transform="translate(0 359.6254317493085) translate(383.6568125 56.68) scale(0.75) translate(-341.67425 22.24)"></path>
      <path id="path43" style="font-style: normal; font-weight: 600; font-size: 32px; line-height: 1; font-family: Raleway; font-variant-ligatures: none; text-align: center; text-anchor: middle;" d="m 364.08025,-0.864 q -0.672,0.32 -1.856,0.736 -1.184,0.384 -2.528,0.384 -0.832,0 -1.568,-0.224 -0.736,-0.224 -1.312,-0.672 -0.544,-0.448 -0.864,-1.152 -0.32,-0.736 -0.32,-1.76 v -10.464 h -2.208 v -2.72 h 2.208 v -5.504 h 3.52 v 5.504 h 3.648 v 2.72 h -3.648 v 9.344 q 0.064,0.896 0.544,1.312 0.512,0.384 1.248,0.384 0.736,0 1.408,-0.256 0.672,-0.256 0.992,-0.416 z" transform="translate(0 359.6254317493085) translate(392.4693125 56.68) scale(0.75) translate(-353.42425 22.24)"></path>
      <path id="path45" style="font-style: normal; font-weight: 600; font-size: 32px; line-height: 1; font-family: Raleway; font-variant-ligatures: none; text-align: center; text-anchor: middle;" d="m 373.66475,0.32 q -1.952,0 -3.552,-0.672 -1.6,-0.704 -2.752,-1.888 -1.12,-1.184 -1.76,-2.752 -0.608,-1.568 -0.608,-3.328 0,-1.76 0.608,-3.328 0.64,-1.6 1.76,-2.784 1.152,-1.216 2.752,-1.888 1.6,-0.704 3.584,-0.704 1.952,0 3.52,0.704 1.6,0.704 2.72,1.888 1.12,1.152 1.696,2.72 0.608,1.536 0.608,3.232 0,0.384 -0.032,0.736 -0.032,0.32 -0.064,0.544 h -13.408 q 0.096,1.12 0.512,2.016 0.448,0.896 1.12,1.568 0.704,0.64 1.568,0.992 0.896,0.352 1.856,0.352 0.704,0 1.376,-0.16 0.704,-0.192 1.28,-0.512 0.576,-0.352 1.024,-0.832 0.448,-0.48 0.704,-1.056 l 3.008,0.864 q -0.864,1.888 -2.88,3.104 -1.984,1.184 -4.64,1.184 z m 5.088,-9.952 q -0.096,-1.056 -0.544,-1.952 -0.416,-0.896 -1.088,-1.504 -0.672,-0.64 -1.568,-0.992 -0.896,-0.352 -1.888,-0.352 -0.992,0 -1.888,0.352 -0.864,0.352 -1.536,0.992 -0.672,0.608 -1.088,1.504 -0.416,0.896 -0.512,1.952 z" transform="translate(0 359.6254317493085) translate(401.1456875 60.592) scale(0.75) translate(-364.99275 17.024)"></path>
      <path id="path47" style="font-style: normal; font-weight: 600; font-size: 32px; line-height: 1; font-family: Raleway; font-variant-ligatures: none; text-align: center; text-anchor: middle;" d="m 394.55125,-13.696 q -2.048,0.064 -3.648,0.96 -1.568,0.864 -2.24,2.496 V 0 h -3.52 v -16.736 h 3.264 v 3.744 q 0.864,-1.728 2.24,-2.752 1.408,-1.056 3.008,-1.152 0.32,0 0.512,0 0.224,0 0.384,0.032 z" transform="translate(0 359.6254317493085) translate(416.25856250000004 60.688) scale(0.75) translate(-385.14325 16.896)"></path>
      <path id="path49" style="font-style: normal; font-weight: 600; font-size: 32px; line-height: 1; font-family: Raleway; font-variant-ligatures: none; text-align: center; text-anchor: middle;" d="m 411.02175,0.32 q -1.696,0 -3.136,-0.672 -1.44,-0.704 -2.496,-1.888 -1.056,-1.184 -1.664,-2.752 -0.576,-1.6 -0.576,-3.424 0,-1.76 0.544,-3.296 0.576,-1.568 1.568,-2.752 1.024,-1.184 2.368,-1.856 1.376,-0.704 3.008,-0.704 2.016,0 3.552,0.992 1.536,0.96 2.4,2.464 v -9.792 h 3.52 v 19.2 q 0,0.608 0.192,0.864 0.224,0.256 0.768,0.288 V 0 q -0.544,0.096 -0.896,0.128 -0.32,0.032 -0.544,0.032 -1.056,0 -1.728,-0.544 -0.672,-0.544 -0.736,-1.408 l -0.064,-1.248 q -0.928,1.568 -2.528,2.464 -1.6,0.896 -3.552,0.896 z m 0.864,-3.008 q 0.768,0 1.536,-0.256 0.768,-0.256 1.408,-0.704 0.64,-0.448 1.088,-1.056 0.48,-0.608 0.672,-1.312 V -10.4 q -0.288,-0.8 -0.832,-1.472 -0.512,-0.672 -1.184,-1.152 -0.672,-0.48 -1.44,-0.736 -0.736,-0.256 -1.504,-0.256 -1.056,0 -1.952,0.48 -0.864,0.48 -1.504,1.28 -0.64,0.8 -1.024,1.824 -0.352,1.024 -0.352,2.112 0,1.152 0.384,2.176 0.416,1.024 1.12,1.792 0.704,0.768 1.6,1.216 0.928,0.448 1.984,0.448 z" transform="translate(0 359.6254317493085) translate(429.7634375 55.84) scale(0.75) translate(-403.14975 23.36)"></path>
      <path id="path51" style="font-style: normal; font-weight: 600; font-size: 32px; line-height: 1; font-family: Raleway; font-variant-ligatures: none; text-align: center; text-anchor: middle;" d="m 432.16475,0.32 q -1.952,0 -3.552,-0.672 -1.6,-0.704 -2.752,-1.888 -1.12,-1.184 -1.76,-2.752 -0.608,-1.568 -0.608,-3.328 0,-1.76 0.608,-3.328 0.64,-1.6 1.76,-2.784 1.152,-1.216 2.752,-1.888 1.6,-0.704 3.584,-0.704 1.952,0 3.52,0.704 1.6,0.704 2.72,1.888 1.12,1.152 1.696,2.72 0.608,1.536 0.608,3.232 0,0.384 -0.032,0.736 -0.032,0.32 -0.064,0.544 h -13.408 q 0.096,1.12 0.512,2.016 0.448,0.896 1.12,1.568 0.704,0.64 1.568,0.992 0.896,0.352 1.856,0.352 0.704,0 1.376,-0.16 0.704,-0.192 1.28,-0.512 0.576,-0.352 1.024,-0.832 0.448,-0.48 0.704,-1.056 l 3.008,0.864 q -0.864,1.888 -2.88,3.104 -1.984,1.184 -4.64,1.184 z m 5.088,-9.952 q -0.096,-1.056 -0.544,-1.952 -0.416,-0.896 -1.088,-1.504 -0.672,-0.64 -1.568,-0.992 -0.896,-0.352 -1.888,-0.352 -0.992,0 -1.888,0.352 -0.864,0.352 -1.536,0.992 -0.672,0.608 -1.088,1.504 -0.416,0.896 -0.512,1.952 z" transform="translate(0 359.6254317493085) translate(445.0206875 60.592) scale(0.75) translate(-423.49275 17.024)"></path>
      <path id="path53" style="font-style: normal; font-weight: 600; font-size: 32px; line-height: 1; font-family: Raleway; font-variant-ligatures: none; text-align: center; text-anchor: middle;" d="m 449.72325,0.32 q -2.016,0 -4.032,-0.64 -1.984,-0.672 -3.424,-1.888 l 1.408,-2.24 q 1.504,1.088 2.976,1.664 1.472,0.544 3.008,0.544 1.568,0 2.464,-0.608 0.928,-0.608 0.928,-1.728 0,-1.056 -1.024,-1.536 -1.024,-0.48 -3.2,-1.056 -1.568,-0.416 -2.688,-0.8 -1.12,-0.384 -1.824,-0.896 -0.704,-0.512 -1.024,-1.184 -0.32,-0.672 -0.32,-1.632 0,-1.28 0.48,-2.272 0.512,-0.992 1.376,-1.664 0.896,-0.704 2.08,-1.056 1.184,-0.352 2.56,-0.352 1.888,0 3.52,0.576 1.632,0.576 2.912,1.664 l -1.504,2.112 q -2.336,-1.856 -4.96,-1.856 -1.344,0 -2.272,0.576 -0.896,0.544 -0.896,1.76 0,0.512 0.192,0.864 0.192,0.352 0.608,0.608 0.448,0.256 1.12,0.48 0.704,0.192 1.728,0.448 1.696,0.416 2.912,0.832 1.248,0.416 2.048,0.992 0.8,0.544 1.184,1.312 0.384,0.736 0.384,1.792 0,2.4 -1.824,3.808 -1.792,1.376 -4.896,1.376 z" transform="translate(0 359.6254317493085) translate(459.1015625 60.592) scale(0.75) translate(-442.26725 17.024)"></path>
      <path id="path55" style="font-style: normal; font-weight: 600; font-size: 32px; line-height: 1; font-family: Raleway; font-variant-ligatures: none; text-align: center; text-anchor: middle;" d="m 459.51825,0 v -16.736 h 3.52 V 0 Z m 0,-19.488 v -3.872 h 3.52 v 3.872 z" transform="translate(0 359.6254317493085) translate(472.03981250000004 55.84) scale(0.75) translate(-459.51825 23.36)"></path>
      <path id="path57" style="font-style: normal; font-weight: 600; font-size: 32px; line-height: 1; font-family: Raleway; font-variant-ligatures: none; text-align: center; text-anchor: middle;" d="m 473.89225,0.16 q -1.696,0 -3.104,-0.672 -1.408,-0.704 -2.432,-1.888 -0.992,-1.184 -1.568,-2.72 -0.544,-1.536 -0.544,-3.232 0,-1.792 0.576,-3.36 0.576,-1.6 1.6,-2.752 1.024,-1.184 2.432,-1.856 1.44,-0.704 3.168,-0.704 2.016,0 3.52,0.96 1.536,0.96 2.528,2.496 v -3.168 h 3.104 V -0.48 q 0,1.824 -0.672,3.232 -0.672,1.408 -1.888,2.368 -1.184,0.992 -2.816,1.504 -1.632,0.512 -3.52,0.512 -2.784,0 -4.64,-0.96 -1.824,-0.928 -3.072,-2.624 l 1.984,-1.856 q 0.96,1.344 2.464,2.048 1.536,0.704 3.264,0.704 1.088,0 2.048,-0.288 0.992,-0.288 1.728,-0.896 0.736,-0.608 1.152,-1.536 0.448,-0.928 0.448,-2.208 v -2.56 q -0.896,1.536 -2.464,2.368 -1.568,0.832 -3.296,0.832 z m 1.152,-2.848 q 0.8,0 1.536,-0.256 0.736,-0.288 1.344,-0.736 0.64,-0.48 1.088,-1.056 0.448,-0.608 0.64,-1.28 V -10.4 q -0.32,-0.8 -0.832,-1.44 -0.512,-0.672 -1.184,-1.152 -0.64,-0.48 -1.376,-0.736 -0.736,-0.288 -1.472,-0.288 -1.152,0 -2.08,0.512 -0.896,0.48 -1.536,1.312 -0.64,0.8 -0.992,1.824 -0.352,1.024 -0.352,2.112 0,1.152 0.384,2.176 0.416,0.992 1.12,1.76 0.704,0.736 1.632,1.184 0.96,0.448 2.08,0.448 z" transform="translate(0 359.6254317493085) translate(477.0843125 60.592) scale(0.75) translate(-466.24425 17.024)"></path>
      <path id="path59" style="font-style: normal; font-weight: 600; font-size: 32px; line-height: 1; font-family: Raleway; font-variant-ligatures: none; text-align: center; text-anchor: middle;" d="m 502.40125,0 h -3.52 v -9.376 q 0,-2.368 -0.768,-3.424 -0.736,-1.088 -2.208,-1.088 -0.768,0 -1.536,0.288 -0.768,0.288 -1.44,0.832 -0.672,0.512 -1.216,1.248 -0.512,0.704 -0.8,1.568 V 0 h -3.52 v -16.736 h 3.2 v 3.36 q 0.96,-1.696 2.784,-2.656 1.824,-0.992 4.032,-0.992 1.504,0 2.464,0.544 0.96,0.544 1.504,1.504 0.576,0.928 0.8,2.176 0.224,1.216 0.224,2.592 z" transform="translate(0 359.6254317493085) translate(492.94606250000004 60.592) scale(0.75) translate(-487.39325 17.024)"></path>
      <path id="path61" style="font-style: normal; font-weight: 600; font-size: 32px; line-height: 1; font-family: Raleway; font-variant-ligatures: none; text-align: center; text-anchor: middle;" d="m 506.35825,0 v -4.096 h 2.912 V 0 Z" transform="translate(0 359.6254317493085) translate(507.16981250000003 70.288) scale(0.75) translate(-506.35825 4.096)"></path>
      <path id="path63" style="font-style: normal; font-weight: 600; font-size: 32px; line-height: 1; font-family: Raleway; font-variant-ligatures: none; text-align: center; text-anchor: middle;" d="m 539.50975,-5.856 q 0,1.376 -0.576,2.464 -0.544,1.088 -1.504,1.856 -0.928,0.736 -2.208,1.152 -1.28,0.384 -2.72,0.384 h -10.848 v -22.72 h 11.712 q 1.184,0 2.144,0.512 0.96,0.512 1.632,1.344 0.672,0.8 1.024,1.856 0.384,1.024 0.384,2.08 0,1.664 -0.864,3.136 -0.832,1.44 -2.4,2.144 1.952,0.576 3.072,2.112 1.152,1.504 1.152,3.68 z m -3.68,-0.672 q 0,-0.704 -0.256,-1.344 -0.224,-0.64 -0.64,-1.12 -0.384,-0.48 -0.96,-0.768 -0.576,-0.288 -1.248,-0.288 h -7.488 v 6.944 h 7.264 q 0.704,0 1.312,-0.256 0.608,-0.288 1.056,-0.736 0.448,-0.48 0.704,-1.088 0.256,-0.64 0.256,-1.344 z m -10.592,-13.088 v 6.688 h 6.592 q 0.672,0 1.216,-0.256 0.576,-0.256 0.992,-0.672 0.448,-0.448 0.672,-1.056 0.256,-0.608 0.256,-1.344 0,-1.472 -0.832,-2.4 -0.832,-0.96 -2.112,-0.96 z" transform="translate(0 359.6254317493085) translate(518.6414375 56.32) scale(0.75) translate(-521.65375 22.72)"></path>
      <path id="path65" style="font-style: normal; font-weight: 600; font-size: 32px; line-height: 1; font-family: Raleway; font-variant-ligatures: none; text-align: center; text-anchor: middle;" d="m 550.41475,0.32 q -1.952,0 -3.552,-0.672 -1.6,-0.704 -2.752,-1.888 -1.12,-1.184 -1.76,-2.752 -0.608,-1.568 -0.608,-3.328 0,-1.76 0.608,-3.328 0.64,-1.6 1.76,-2.784 1.152,-1.216 2.752,-1.888 1.6,-0.704 3.584,-0.704 1.952,0 3.52,0.704 1.6,0.704 2.72,1.888 1.12,1.152 1.696,2.72 0.608,1.536 0.608,3.232 0,0.384 -0.032,0.736 -0.032,0.32 -0.064,0.544 h -13.408 q 0.096,1.12 0.512,2.016 0.448,0.896 1.12,1.568 0.704,0.64 1.568,0.992 0.896,0.352 1.856,0.352 0.704,0 1.376,-0.16 0.704,-0.192 1.28,-0.512 0.576,-0.352 1.024,-0.832 0.448,-0.48 0.704,-1.056 l 3.008,0.864 q -0.864,1.888 -2.88,3.104 -1.984,1.184 -4.64,1.184 z m 5.088,-9.952 q -0.096,-1.056 -0.544,-1.952 -0.416,-0.896 -1.088,-1.504 -0.672,-0.64 -1.568,-0.992 -0.896,-0.352 -1.888,-0.352 -0.992,0 -1.888,0.352 -0.864,0.352 -1.536,0.992 -0.672,0.608 -1.088,1.504 -0.416,0.896 -0.512,1.952 z" transform="translate(0 359.6254317493085) translate(533.7081875000001 60.592) scale(0.75) translate(-541.74275 17.024)"></path>
      <path id="path67" style="font-style: normal; font-weight: 600; font-size: 32px; line-height: 1; font-family: Raleway; font-variant-ligatures: none; text-align: center; text-anchor: middle;" d="m 571.08025,-0.864 q -0.672,0.32 -1.856,0.736 -1.184,0.384 -2.528,0.384 -0.832,0 -1.568,-0.224 -0.736,-0.224 -1.312,-0.672 -0.544,-0.448 -0.864,-1.152 -0.32,-0.736 -0.32,-1.76 v -10.464 h -2.208 v -2.72 h 2.208 v -5.504 h 3.52 v 5.504 h 3.648 v 2.72 h -3.648 v 9.344 q 0.064,0.896 0.544,1.312 0.512,0.384 1.248,0.384 0.736,0 1.408,-0.256 0.672,-0.256 0.992,-0.416 z" transform="translate(0 359.6254317493085) translate(547.7193125000001 56.68) scale(0.75) translate(-560.42425 22.24)"></path>
      <path id="path69" style="font-style: normal; font-weight: 600; font-size: 32px; line-height: 1; font-family: Raleway; font-variant-ligatures: none; text-align: center; text-anchor: middle;" d="m 582.83025,-0.864 q -0.672,0.32 -1.856,0.736 -1.184,0.384 -2.528,0.384 -0.832,0 -1.568,-0.224 -0.736,-0.224 -1.312,-0.672 -0.544,-0.448 -0.864,-1.152 -0.32,-0.736 -0.32,-1.76 v -10.464 h -2.208 v -2.72 h 2.208 v -5.504 h 3.52 v 5.504 h 3.648 v 2.72 h -3.648 v 9.344 q 0.064,0.896 0.544,1.312 0.512,0.384 1.248,0.384 0.736,0 1.408,-0.256 0.672,-0.256 0.992,-0.416 z" transform="translate(0 359.6254317493085) translate(556.5318125000001 56.68) scale(0.75) translate(-572.17425 22.24)"></path>
      <path id="path71" style="font-style: normal; font-weight: 600; font-size: 32px; line-height: 1; font-family: Raleway; font-variant-ligatures: none; text-align: center; text-anchor: middle;" d="m 592.41475,0.32 q -1.952,0 -3.552,-0.672 -1.6,-0.704 -2.752,-1.888 -1.12,-1.184 -1.76,-2.752 -0.608,-1.568 -0.608,-3.328 0,-1.76 0.608,-3.328 0.64,-1.6 1.76,-2.784 1.152,-1.216 2.752,-1.888 1.6,-0.704 3.584,-0.704 1.952,0 3.52,0.704 1.6,0.704 2.72,1.888 1.12,1.152 1.696,2.72 0.608,1.536 0.608,3.232 0,0.384 -0.032,0.736 -0.032,0.32 -0.064,0.544 h -13.408 q 0.096,1.12 0.512,2.016 0.448,0.896 1.12,1.568 0.704,0.64 1.568,0.992 0.896,0.352 1.856,0.352 0.704,0 1.376,-0.16 0.704,-0.192 1.28,-0.512 0.576,-0.352 1.024,-0.832 0.448,-0.48 0.704,-1.056 l 3.008,0.864 q -0.864,1.888 -2.88,3.104 -1.984,1.184 -4.64,1.184 z m 5.088,-9.952 q -0.096,-1.056 -0.544,-1.952 -0.416,-0.896 -1.088,-1.504 -0.672,-0.64 -1.568,-0.992 -0.896,-0.352 -1.888,-0.352 -0.992,0 -1.888,0.352 -0.864,0.352 -1.536,0.992 -0.672,0.608 -1.088,1.504 -0.416,0.896 -0.512,1.952 z" transform="translate(0 359.6254317493085) translate(565.2081875000001 60.592) scale(0.75) translate(-583.74275 17.024)"></path>
      <path id="path73" style="font-style: normal; font-weight: 600; font-size: 32px; line-height: 1; font-family: Raleway; font-variant-ligatures: none; text-align: center; text-anchor: middle;" d="m 613.30125,-13.696 q -2.048,0.064 -3.648,0.96 -1.568,0.864 -2.24,2.496 V 0 h -3.52 v -16.736 h 3.264 v 3.744 q 0.864,-1.728 2.24,-2.752 1.408,-1.056 3.008,-1.152 0.32,0 0.512,0 0.224,0 0.384,0.032 z" transform="translate(0 359.6254317493085) translate(580.3210625000002 60.688) scale(0.75) translate(-603.89325 16.896)"></path>
      <path id="path75" style="font-style: normal; font-weight: 600; font-size: 32px; line-height: 1; font-family: Raleway; font-variant-ligatures: none; text-align: center; text-anchor: middle;" d="m 632.36375,-13.696 q -2.048,0.064 -3.648,0.96 -1.568,0.864 -2.24,2.496 V 0 h -3.52 v -16.736 h 3.264 v 3.744 q 0.864,-1.728 2.24,-2.752 1.408,-1.056 3.008,-1.152 0.32,0 0.512,0 0.224,0 0.384,0.032 z" transform="translate(0 359.6254317493085) translate(594.6179375000002 60.688) scale(0.75) translate(-622.95575 16.896)"></path>
      <path id="path77" style="font-style: normal; font-weight: 600; font-size: 32px; line-height: 1; font-family: Raleway; font-variant-ligatures: none; text-align: center; text-anchor: middle;" d="m 641.66475,0.32 q -1.952,0 -3.552,-0.672 -1.6,-0.704 -2.752,-1.888 -1.12,-1.184 -1.76,-2.752 -0.608,-1.568 -0.608,-3.328 0,-1.76 0.608,-3.328 0.64,-1.6 1.76,-2.784 1.152,-1.216 2.752,-1.888 1.6,-0.704 3.584,-0.704 1.952,0 3.52,0.704 1.6,0.704 2.72,1.888 1.12,1.152 1.696,2.72 0.608,1.536 0.608,3.232 0,0.384 -0.032,0.736 -0.032,0.32 -0.064,0.544 h -13.408 q 0.096,1.12 0.512,2.016 0.448,0.896 1.12,1.568 0.704,0.64 1.568,0.992 0.896,0.352 1.856,0.352 0.704,0 1.376,-0.16 0.704,-0.192 1.28,-0.512 0.576,-0.352 1.024,-0.832 0.448,-0.48 0.704,-1.056 l 3.008,0.864 q -0.864,1.888 -2.88,3.104 -1.984,1.184 -4.64,1.184 z m 5.088,-9.952 q -0.096,-1.056 -0.544,-1.952 -0.416,-0.896 -1.088,-1.504 -0.672,-0.64 -1.568,-0.992 -0.896,-0.352 -1.888,-0.352 -0.992,0 -1.888,0.352 -0.864,0.352 -1.536,0.992 -0.672,0.608 -1.088,1.504 -0.416,0.896 -0.512,1.952 z" transform="translate(0 359.6254317493085) translate(602.1456875000002 60.592) scale(0.75) translate(-632.99275 17.024)"></path>
      <path id="path79" style="font-style: normal; font-weight: 600; font-size: 32px; line-height: 1; font-family: Raleway; font-variant-ligatures: none; text-align: center; text-anchor: middle;" d="m 659.22325,0.32 q -2.016,0 -4.032,-0.64 -1.984,-0.672 -3.424,-1.888 l 1.408,-2.24 q 1.504,1.088 2.976,1.664 1.472,0.544 3.008,0.544 1.568,0 2.464,-0.608 0.928,-0.608 0.928,-1.728 0,-1.056 -1.024,-1.536 -1.024,-0.48 -3.2,-1.056 -1.568,-0.416 -2.688,-0.8 -1.12,-0.384 -1.824,-0.896 -0.704,-0.512 -1.024,-1.184 -0.32,-0.672 -0.32,-1.632 0,-1.28 0.48,-2.272 0.512,-0.992 1.376,-1.664 0.896,-0.704 2.08,-1.056 1.184,-0.352 2.56,-0.352 1.888,0 3.52,0.576 1.632,0.576 2.912,1.664 l -1.504,2.112 q -2.336,-1.856 -4.96,-1.856 -1.344,0 -2.272,0.576 -0.896,0.544 -0.896,1.76 0,0.512 0.192,0.864 0.192,0.352 0.608,0.608 0.448,0.256 1.12,0.48 0.704,0.192 1.728,0.448 1.696,0.416 2.912,0.832 1.248,0.416 2.048,0.992 0.8,0.544 1.184,1.312 0.384,0.736 0.384,1.792 0,2.4 -1.824,3.808 -1.792,1.376 -4.896,1.376 z" transform="translate(0 359.6254317493085) translate(616.2265625000002 60.592) scale(0.75) translate(-651.76725 17.024)"></path>
      <path id="path81" style="font-style: normal; font-weight: 600; font-size: 32px; line-height: 1; font-family: Raleway; font-variant-ligatures: none; text-align: center; text-anchor: middle;" d="m 674.17025,0.32 q -2.624,0 -3.968,-1.696 -1.344,-1.728 -1.344,-5.12 v -10.24 h 3.52 V -7.2 q 0,4.512 3.2,4.512 1.504,0 2.848,-0.928 1.344,-0.928 2.08,-2.688 v -10.432 h 3.52 V -4.16 q 0,0.608 0.192,0.864 0.224,0.256 0.768,0.288 V 0 q -0.544,0.096 -0.896,0.128 -0.352,0.032 -0.672,0.032 -0.96,0 -1.632,-0.512 -0.672,-0.544 -0.704,-1.376 l -0.064,-1.664 q -1.12,1.824 -2.912,2.784 -1.792,0.928 -3.936,0.928 z" transform="translate(0 359.6254317493085) translate(629.0448125000001 60.808) scale(0.75) translate(-668.85825 16.736)"></path>
      <path id="path83" style="font-style: normal; font-weight: 600; font-size: 32px; line-height: 1; font-family: Raleway; font-variant-ligatures: none; text-align: center; text-anchor: middle;" d="m 688.55025,-23.36 h 3.52 v 18.528 q 0,0.928 0.48,1.472 0.48,0.512 1.344,0.512 0.352,0 0.8,-0.128 0.48,-0.128 0.896,-0.288 l 0.512,2.752 q -0.768,0.352 -1.824,0.544 -1.056,0.224 -1.888,0.224 -1.824,0 -2.848,-0.992 -0.992,-0.992 -0.992,-2.816 z" transform="translate(0 359.6254317493085) translate(643.8138125000002 55.84) scale(0.75) translate(-688.55025 23.36)"></path>
      <path id="path85" style="font-style: normal; font-weight: 600; font-size: 32px; line-height: 1; font-family: Raleway; font-variant-ligatures: none; text-align: center; text-anchor: middle;" d="m 707.45525,-0.864 q -0.672,0.32 -1.856,0.736 -1.184,0.384 -2.528,0.384 -0.832,0 -1.568,-0.224 -0.736,-0.224 -1.312,-0.672 -0.544,-0.448 -0.864,-1.152 -0.32,-0.736 -0.32,-1.76 v -10.464 h -2.208 v -2.72 h 2.208 v -5.504 h 3.52 v 5.504 h 3.648 v 2.72 h -3.648 v 9.344 q 0.064,0.896 0.544,1.312 0.512,0.384 1.248,0.384 0.736,0 1.408,-0.256 0.672,-0.256 0.992,-0.416 z" transform="translate(0 359.6254317493085) translate(650.0005625000001 56.68) scale(0.75) translate(-696.79925 22.24)"></path>
      <path id="path87" style="font-style: normal; font-weight: 600; font-size: 32px; line-height: 1; font-family: Raleway; font-variant-ligatures: none; text-align: center; text-anchor: middle;" d="m 715.97325,0.32 q -2.016,0 -4.032,-0.64 -1.984,-0.672 -3.424,-1.888 l 1.408,-2.24 q 1.504,1.088 2.976,1.664 1.472,0.544 3.008,0.544 1.568,0 2.464,-0.608 0.928,-0.608 0.928,-1.728 0,-1.056 -1.024,-1.536 -1.024,-0.48 -3.2,-1.056 -1.568,-0.416 -2.688,-0.8 -1.12,-0.384 -1.824,-0.896 -0.704,-0.512 -1.024,-1.184 -0.32,-0.672 -0.32,-1.632 0,-1.28 0.48,-2.272 0.512,-0.992 1.376,-1.664 0.896,-0.704 2.08,-1.056 1.184,-0.352 2.56,-0.352 1.888,0 3.52,0.576 1.632,0.576 2.912,1.664 l -1.504,2.112 q -2.336,-1.856 -4.96,-1.856 -1.344,0 -2.272,0.576 -0.896,0.544 -0.896,1.76 0,0.512 0.192,0.864 0.192,0.352 0.608,0.608 0.448,0.256 1.12,0.48 0.704,0.192 1.728,0.448 1.696,0.416 2.912,0.832 1.248,0.416 2.048,0.992 0.8,0.544 1.184,1.312 0.384,0.736 0.384,1.792 0,2.4 -1.824,3.808 -1.792,1.376 -4.896,1.376 z" transform="translate(0 359.6254317493085) translate(658.7890625000001 60.592) scale(0.75) translate(-708.51725 17.024)"></path>
    </g>
  </g>
</svg>
