<svg width="62" height="68" viewBox="0 0 62 68" fill="none" xmlns="http://www.w3.org/2000/svg">
<path d="M61.5183 46.0922V21.9078C61.5183 18.4008 59.6494 15.1618 56.6114 13.412L35.666 1.31235C32.6281 -0.437449 28.8902 -0.437449 25.8523 1.31235L4.90687 13.4045C1.86893 15.1618 0 18.4008 0 21.9078V46.0996C0 49.6067 1.86893 52.8457 4.90687 54.5955L25.8523 66.6877C28.8902 68.4375 32.6281 68.4375 35.666 66.6877L56.6114 54.5955C59.6494 52.8382 61.5183 49.5992 61.5183 46.0922Z" fill="#3F3D56"/>
<path d="M30.7592 50.7534C40.0293 50.7534 47.5125 43.2702 47.5125 34C47.5125 24.7298 40.0293 17.2466 30.7592 17.2466C21.489 17.2466 14.0058 24.7298 14.0058 34C14.0058 43.2702 21.489 50.7534 30.7592 50.7534ZM42.0025 33.6649L35.0033 27.5965C34.8172 27.4103 34.78 27.1497 34.9661 26.9636C35.115 26.8147 35.4129 26.7774 35.5618 26.9264L43.2311 33.6649C43.4172 33.8511 43.4172 34.1489 43.2311 34.3351L35.599 41.0736C35.4129 41.2226 35.1523 41.2226 35.0033 41.0364C34.8172 40.8503 34.8172 40.5524 35.0406 40.4035L42.0397 34.3351C42.2259 34.1489 42.2259 33.8511 42.0025 33.6649ZM28.1903 41.5949L32.3228 26.219C32.3973 25.9956 32.6206 25.8467 32.844 25.9212C33.0674 25.9956 33.2163 26.219 33.1419 26.4424L29.0094 41.781C28.9349 42.0044 28.7115 42.1533 28.4881 42.0788C28.2648 42.0416 28.1531 41.8182 28.1903 41.5949ZM18.25 33.6649L25.9193 26.9264C26.1054 26.7774 26.3661 26.7774 26.515 26.9636C26.7011 27.1497 26.7011 27.4476 26.4777 27.5965L19.5158 33.6649C19.3296 33.8511 19.3296 34.1489 19.5158 34.3351L26.515 40.4035C26.7011 40.5897 26.7384 40.8503 26.5522 41.0364C26.4033 41.1853 26.1054 41.2226 25.9565 41.0736L18.25 34.3351C18.0638 34.1489 18.0638 33.8511 18.25 33.6649Z" fill="#408BA6"/>
</svg>
