<svg fill="none" height="687" viewBox="0 0 681 687" width="681" xmlns="http://www.w3.org/2000/svg" xmlns:xlink="http://www.w3.org/1999/xlink"><clipPath id="a"><path d="m0 0h681v686.689h-681z"/></clipPath><g clip-path="url(#a)"><path d="m340.5 686.689c188.053 0 340.5-8.954 340.5-20s-152.447-20-340.5-20-340.5 8.954-340.5 20 152.447 20 340.5 20z" fill="#e6e6e6"/><path d="m386 158.431h-3.663v-100.351c0-15.4038-6.119-30.1766-17.011-41.0688-10.892-10.89207-25.665-17.0112-41.069-17.0112h-212.606c-15.4038 0-30.1766 6.11913-41.0688 17.0112-10.8921 10.8922-17.0112 25.665-17.0112 41.0688v550.53c0 15.404 6.1191 30.177 17.0112 41.069 10.8922 10.892 25.665 17.011 41.0688 17.011h212.606c15.404 0 30.177-6.119 41.069-17.011s17.011-25.665 17.011-41.069v-378.748h3.663z" fill="#3f3d56"/><path d="m369.975 58.486v549.719c0 11.504-4.57 22.536-12.705 30.67-8.134 8.135-19.166 12.705-30.67 12.705h-213.626c-11.503-.001-22.5354-4.57-30.6695-12.705-8.1341-8.134-12.704-19.166-12.7045-30.669v-549.72c.0003-11.5037 4.5702-22.5361 12.7045-30.6705 8.1344-8.1343 19.1665-12.7042 30.6705-12.7045h25.916c-1.274 3.1292-1.759 6.5234-1.413 9.8841.347 3.3607 1.513 6.5848 3.398 9.3888 1.884 2.8039 4.429 5.1018 7.41 6.6914s6.308 2.4222 9.686 2.4247h121.8c3.379-.0023 6.705-.8348 9.686-2.4244 2.981-1.5895 5.526-3.8874 7.411-6.6913 1.885-2.804 3.051-6.0282 3.398-9.3889.346-3.3608-.139-6.7551-1.413-9.8844h27.746c11.504.0003 22.536 4.5702 30.67 12.7045 8.135 8.1344 12.705 19.1668 12.705 30.6705z" fill="#fff"/><g fill="#e6e6e6"><path d="m164.28 211.56c22.798 0 41.28-18.482 41.28-41.28s-18.482-41.28-41.28-41.28-41.28 18.482-41.28 41.28 18.482 41.28 41.28 41.28z"/><path d="m284 291c29.823 0 54-24.177 54-54s-24.177-54-54-54-54 24.177-54 54 24.177 54 54 54z"/><path d="m169.28 332.56c22.798 0 41.28-18.482 41.28-41.28s-18.482-41.28-41.28-41.28-41.28 18.482-41.28 41.28 18.482 41.28 41.28 41.28z"/><path d="m369.975 487.998v123.008c0 24.949-19.419 45.174-43.375 45.175h-213.626c-23.955 0-43.375-20.225-43.376-45.175v-111.016c37.038-45.282 90.589-72.345 147.662-74.624s112.457 20.435 152.715 62.632z"/></g><path d="m220.02 609.338c34.909 0 63.208-28.299 63.208-63.208s-28.299-63.208-63.208-63.208-63.208 28.299-63.208 63.208 28.299 63.208 63.208 63.208z" fill="#408ba6" opacity=".2"/><path d="m220.02 597.025c28.109 0 50.895-22.786 50.895-50.895s-22.786-50.895-50.895-50.895-50.895 22.786-50.895 50.895 22.786 50.895 50.895 50.895z" fill="#408ba6"/></g></svg>