<svg width="420" height="305" viewBox="0 0 420 305" fill="none" xmlns="http://www.w3.org/2000/svg">
<path d="M276.548 70.1442H143.786C143.577 70.1442 143.377 70.0614 143.23 69.9141C143.083 69.7668 143 69.567 143 69.3586C143 69.1503 143.083 68.9505 143.23 68.8031C143.377 68.6558 143.577 68.5731 143.786 68.5731H276.548C276.756 68.5731 276.956 68.6558 277.103 68.8031C277.25 68.9505 277.333 69.1503 277.333 69.3586C277.333 69.567 277.25 69.7668 277.103 69.9141C276.956 70.0614 276.756 70.1442 276.548 70.1442Z" fill="#3F3D56"/>
<path d="M233.341 57.2846H188.563C187.73 57.2846 186.931 56.9535 186.342 56.3642C185.752 55.775 185.421 54.9757 185.421 54.1423C185.421 53.3089 185.752 52.5097 186.342 51.9204C186.931 51.3311 187.73 51 188.563 51H233.341C234.175 51 234.974 51.3311 235.563 51.9204C236.152 52.5097 236.483 53.3089 236.483 54.1423C236.483 54.9757 236.152 55.775 235.563 56.3642C234.974 56.9535 234.175 57.2846 233.341 57.2846Z" fill="#CCCCCC"/>
<path d="M186.494 206.461C186.174 206.056 185.95 205.584 185.84 205.079C185.73 204.575 185.737 204.052 185.86 203.55C188.79 191.278 188.789 178.488 185.859 166.216C185.737 165.714 185.73 165.192 185.84 164.687C185.95 164.183 186.174 163.71 186.494 163.305C186.807 162.906 187.207 162.583 187.664 162.362C188.121 162.141 188.622 162.027 189.13 162.028H220.452C221.252 162.03 222.026 162.315 222.636 162.834C223.245 163.353 223.651 164.071 223.78 164.861C225.824 178.131 225.824 191.636 223.78 204.906C223.651 205.696 223.245 206.414 222.636 206.932C222.026 207.451 221.252 207.737 220.452 207.738H189.13C188.622 207.74 188.121 207.626 187.664 207.404C187.207 207.183 186.807 206.86 186.494 206.461V206.461Z" fill="#E6E6E6"/>
<path d="M229.253 152.586C227.21 139.316 227.21 125.811 229.253 112.541C229.382 111.751 229.788 111.033 230.397 110.515C231.007 109.996 231.781 109.71 232.581 109.709H263.904C264.411 109.707 264.912 109.821 265.369 110.043C265.826 110.264 266.226 110.587 266.539 110.986C266.86 111.391 267.083 111.864 267.193 112.368C267.303 112.872 267.296 113.395 267.174 113.896C264.244 126.169 264.244 138.959 267.173 151.231C267.296 151.732 267.303 152.255 267.193 152.759C267.083 153.264 266.86 153.736 266.539 154.141C266.226 154.541 265.826 154.863 265.369 155.085C264.912 155.306 264.411 155.42 263.904 155.419H232.581C231.781 155.417 231.007 155.132 230.397 154.613C229.788 154.094 229.382 153.376 229.253 152.586V152.586Z" fill="#6C63FF"/>
<path d="M158.503 140.718C158.178 140.306 157.951 139.826 157.839 139.313C157.727 138.8 157.734 138.269 157.859 137.759C160.837 125.285 160.837 112.285 157.858 99.8113C157.734 99.3016 157.727 98.7702 157.839 98.2576C157.951 97.7449 158.178 97.2645 158.503 96.8529C158.822 96.447 159.229 96.1191 159.693 95.8942C160.157 95.6693 160.666 95.5532 161.182 95.5548H193.019C193.833 95.5564 194.62 95.8466 195.239 96.3738C195.859 96.9011 196.271 97.6311 196.403 98.4339C198.479 111.922 198.479 125.649 196.403 139.137C196.271 139.94 195.859 140.67 195.239 141.197C194.62 141.724 193.833 142.014 193.019 142.016H161.182C160.666 142.017 160.157 141.901 159.693 141.676C159.228 141.452 158.822 141.124 158.503 140.718V140.718Z" fill="#6C63FF"/>
<path d="M186.876 112.698H170.105C169.48 112.697 168.881 112.448 168.439 112.007C167.997 111.565 167.749 110.966 167.748 110.341V109.34C167.749 108.715 167.997 108.116 168.439 107.674C168.881 107.232 169.48 106.984 170.105 106.983H186.876C187.501 106.984 188.1 107.232 188.542 107.674C188.983 108.116 189.232 108.715 189.233 109.34V110.341C189.232 110.966 188.983 111.565 188.542 112.007C188.1 112.448 187.501 112.697 186.876 112.698Z" fill="white"/>
<path d="M186.876 122.554H170.105C169.48 122.554 168.881 122.305 168.439 121.863C167.997 121.421 167.749 120.822 167.748 120.198V119.197C167.749 118.572 167.997 117.973 168.439 117.531C168.881 117.089 169.48 116.841 170.105 116.84H186.876C187.501 116.841 188.1 117.089 188.542 117.531C188.983 117.973 189.232 118.572 189.233 119.197V120.198C189.232 120.822 188.983 121.421 188.542 121.863C188.1 122.305 187.501 122.554 186.876 122.554V122.554Z" fill="white"/>
<path d="M214.009 177.289H197.572C196.948 177.288 196.349 177.039 195.907 176.598C195.465 176.156 195.216 175.557 195.216 174.932V174.011C195.216 173.386 195.465 172.787 195.907 172.345C196.349 171.904 196.948 171.655 197.572 171.654H214.009C214.634 171.655 215.233 171.904 215.675 172.345C216.117 172.787 216.366 173.386 216.366 174.011V174.932C216.366 175.557 216.117 176.156 215.675 176.598C215.233 177.039 214.634 177.288 214.009 177.289V177.289Z" fill="white"/>
<path d="M214.009 188.926H197.572C196.948 188.925 196.349 188.677 195.907 188.235C195.465 187.793 195.216 187.194 195.216 186.569V185.648C195.216 185.023 195.465 184.424 195.907 183.983C196.349 183.541 196.948 183.292 197.572 183.292H214.009C214.634 183.292 215.233 183.541 215.675 183.983C216.117 184.424 216.366 185.023 216.366 185.648V186.569C216.366 187.194 216.117 187.793 215.675 188.235C215.233 188.677 214.634 188.925 214.009 188.926V188.926Z" fill="white"/>
<path d="M214.009 200.563H197.572C196.948 200.562 196.349 200.314 195.907 199.872C195.465 199.43 195.216 198.831 195.216 198.206V197.285C195.216 196.661 195.465 196.061 195.907 195.62C196.349 195.178 196.948 194.929 197.572 194.929H214.009C214.634 194.929 215.233 195.178 215.675 195.62C216.117 196.061 216.366 196.661 216.366 197.285V198.206C216.366 198.831 216.117 199.43 215.675 199.872C215.233 200.314 214.634 200.562 214.009 200.563V200.563Z" fill="white"/>
<path d="M254.837 130.064H238.4C237.775 130.063 237.176 129.815 236.734 129.373C236.292 128.931 236.044 128.332 236.043 127.707V126.786C236.044 126.162 236.292 125.563 236.734 125.121C237.176 124.679 237.775 124.43 238.4 124.43H254.837C255.462 124.43 256.061 124.679 256.503 125.121C256.945 125.563 257.193 126.162 257.194 126.786V127.707C257.193 128.332 256.945 128.931 256.503 129.373C256.061 129.815 255.462 130.063 254.837 130.064Z" fill="white"/>
<path d="M144.814 250.993C142.771 237.723 142.771 224.218 144.814 210.948C144.944 210.158 145.349 209.44 145.959 208.921C146.568 208.402 147.342 208.117 148.142 208.115H179.465C179.973 208.114 180.474 208.228 180.931 208.449C181.388 208.671 181.788 208.993 182.101 209.393C182.421 209.798 182.645 210.27 182.755 210.775C182.865 211.279 182.858 211.802 182.735 212.303C179.805 224.575 179.805 237.365 182.735 249.638C182.858 250.139 182.865 250.662 182.755 251.166C182.645 251.67 182.421 252.143 182.101 252.548C181.788 252.947 181.388 253.27 180.931 253.491C180.474 253.713 179.973 253.827 179.465 253.825H148.142C147.342 253.824 146.568 253.538 145.959 253.02C145.349 252.501 144.944 251.783 144.814 250.993V250.993Z" fill="#FF6584"/>
<path d="M169.826 227.501H153.389C152.764 227.5 152.165 227.251 151.724 226.81C151.282 226.368 151.033 225.769 151.033 225.144V224.223C151.033 223.598 151.282 222.999 151.724 222.558C152.165 222.116 152.764 221.867 153.389 221.867H169.826C170.451 221.867 171.05 222.116 171.492 222.558C171.934 222.999 172.182 223.598 172.183 224.223V225.144C172.182 225.769 171.934 226.368 171.492 226.81C171.05 227.251 170.451 227.5 169.826 227.501V227.501Z" fill="white"/>
<path d="M169.826 237.198H153.389C152.764 237.198 152.165 236.949 151.724 236.507C151.282 236.065 151.033 235.466 151.033 234.842V233.921C151.033 233.296 151.282 232.697 151.724 232.255C152.165 231.813 152.764 231.565 153.389 231.564H169.826C170.451 231.565 171.05 231.813 171.492 232.255C171.934 232.697 172.182 233.296 172.183 233.921V234.842C172.182 235.466 171.934 236.065 171.492 236.507C171.05 236.949 170.451 237.198 169.826 237.198V237.198Z" fill="white"/>
</svg>
