<svg width="888" height="581" viewBox="0 0 888 581" fill="none" xmlns="http://www.w3.org/2000/svg">
<path d="M589.98 133.76V199.44C589.978 200.047 589.737 200.628 589.307 201.057C588.878 201.487 588.297 201.728 587.69 201.73H586.06V543.88C586.06 553.348 582.298 562.428 575.603 569.123C568.908 575.818 559.828 579.579 550.36 579.58H336.57C331.882 579.58 327.241 578.656 322.91 576.861C318.58 575.067 314.645 572.437 311.331 569.122C308.017 565.807 305.388 561.872 303.595 557.54C301.802 553.209 300.879 548.568 300.88 543.88V213.73H299.7C299.272 213.731 298.861 213.562 298.557 213.26C298.254 212.958 298.082 212.548 298.08 212.12V174.74C298.08 174.527 298.122 174.317 298.203 174.12C298.285 173.923 298.404 173.745 298.554 173.594C298.705 173.444 298.883 173.325 299.08 173.243C299.277 173.162 299.487 173.12 299.7 173.12H300.88V159.04H299.69C299.241 159.038 298.81 158.858 298.493 158.54C298.177 158.221 297.999 157.789 298 157.34V120.47C298.001 120.022 298.18 119.593 298.496 119.276C298.813 118.96 299.242 118.781 299.69 118.78H300.88V99.56H299.67C299.473 99.5603 299.278 99.5216 299.096 99.4464C298.913 99.3711 298.748 99.2606 298.609 99.1212C298.469 98.9819 298.359 98.8164 298.284 98.6343C298.208 98.4522 298.17 98.2571 298.17 98.06V77.94C298.169 77.541 298.326 77.1579 298.608 76.8748C298.889 76.5917 299.271 76.4317 299.67 76.43H300.88V35.69C300.88 26.2245 304.641 17.1468 311.334 10.4537C318.027 3.76064 327.105 0.000344758 336.57 3.65276e-10H550.36C559.827 -4.27914e-05 568.905 3.7598 575.6 10.4527C582.295 17.1456 586.057 26.2235 586.06 35.69V131.47H587.69C588.297 131.472 588.878 131.713 589.307 132.142C589.737 132.572 589.978 133.153 589.98 133.76V133.76Z" fill="#3F3D56"/>
<path d="M453.765 18.3067H419.026C417.622 18.3067 416.484 19.4448 416.484 20.8486V23.8513C416.484 25.2551 417.622 26.3932 419.026 26.3932H453.765C455.169 26.3932 456.307 25.2551 456.307 23.8513V20.8486C456.307 19.4448 455.169 18.3067 453.765 18.3067Z" fill="#E6E8EC"/>
<path d="M466.915 26.9366C469.448 26.9366 471.502 24.8831 471.502 22.35C471.502 19.8168 469.448 17.7633 466.915 17.7633C464.382 17.7633 462.328 19.8168 462.328 22.35C462.328 24.8831 464.382 26.9366 466.915 26.9366Z" fill="#E6E8EC"/>
<path d="M568.965 42.7498V546.84C568.962 552.845 566.575 558.604 562.327 562.849C558.08 567.095 552.32 569.48 546.315 569.48H341.665C338.69 569.485 335.743 568.903 332.993 567.767C330.244 566.631 327.745 564.964 325.641 562.861C323.537 560.758 321.868 558.26 320.731 555.511C319.594 552.761 319.011 549.815 319.015 546.84V42.7498C319.015 39.7753 319.601 36.8299 320.739 34.0818C321.877 31.3338 323.545 28.8368 325.649 26.7335C327.752 24.6303 330.249 22.9619 332.997 21.8237C335.745 20.6854 338.691 20.0997 341.665 20.0998H372.295V24.0298C372.295 28.976 374.26 33.7197 377.758 37.2173C381.255 40.7148 385.999 42.6797 390.945 42.6798H495.025C499.971 42.6798 504.715 40.7148 508.213 37.2173C511.71 33.7197 513.675 28.9761 513.675 24.0298V20.0998H546.315C549.29 20.0988 552.235 20.684 554.984 21.8219C557.732 22.9599 560.23 24.6282 562.333 26.7317C564.437 28.8351 566.105 31.3324 567.243 34.0809C568.381 36.8293 568.966 39.7751 568.965 42.7498V42.7498Z" fill="white"/>
<path d="M548.407 351.959H340.407V378.959H548.407V351.959Z" fill="#E6E6E6"/>
<path d="M548.407 399.959H340.407V426.959H548.407V399.959Z" fill="#E6E6E6"/>
<path d="M548.407 447.959H340.407V474.959H548.407V447.959Z" fill="#E6E6E6"/>
<path d="M525.407 110.959C536.453 110.959 545.407 102.004 545.407 90.9588C545.407 79.9131 536.453 70.9588 525.407 70.9588C514.361 70.9588 505.407 79.9131 505.407 90.9588C505.407 102.004 514.361 110.959 525.407 110.959Z" fill="#408BA6"/>
<path d="M547.99 157.959H339.99V295.959H547.99V157.959Z" fill="#E6E6E6"/>
<path d="M422.816 235.55C428.889 258 449.691 271.904 449.691 271.904C449.691 271.904 460.646 249.409 454.573 226.959C448.5 204.509 427.698 190.605 427.698 190.605C427.698 190.605 416.743 213.1 422.816 235.55Z" fill="#3F3D56"/>
<path d="M431.74 230.725C448.405 246.947 450.44 271.885 450.44 271.885C450.44 271.885 425.457 270.521 408.792 254.299C392.127 238.076 390.091 213.138 390.091 213.138C390.091 213.138 415.075 214.502 431.74 230.725Z" fill="#408BA6"/>
<path d="M478.065 235.55C471.991 258 451.189 271.904 451.189 271.904C451.189 271.904 440.234 249.409 446.307 226.959C452.38 204.509 473.182 190.605 473.182 190.605C473.182 190.605 484.138 213.1 478.065 235.55Z" fill="#3F3D56"/>
<path d="M469.14 230.725C452.476 246.947 450.44 271.885 450.44 271.885C450.44 271.885 475.424 270.521 492.089 254.299C508.753 238.076 510.789 213.138 510.789 213.138C510.789 213.138 485.805 214.502 469.14 230.725Z" fill="#408BA6"/>
</svg>
