<svg width="1195" height="580" viewBox="0 0 1195 580" fill="none" xmlns="http://www.w3.org/2000/svg">
<path d="M780.869 43.756H22.9667V536.163H780.869V43.756Z" fill="white"/>
<path d="M57.8762 41H0V538H57.8762V41Z" fill="#3F3D56"/>
<path d="M320.616 177.882H169.035V179.719H320.616V177.882Z" fill="#D0CDE1"/>
<path d="M459.043 249.785L457.789 251.128L664.489 444.049L665.743 442.705L459.043 249.785Z" fill="#D0CDE1"/>
<path d="M664.494 249.79L457.784 442.7L459.038 444.044L665.748 251.133L664.494 249.79Z" fill="#D0CDE1"/>
<path d="M383.085 312.926H169.035V314.763H383.085V312.926Z" fill="#D0CDE1"/>
<path d="M383.085 345.998H169.035V347.836H383.085V345.998Z" fill="#D0CDE1"/>
<path d="M383.085 379.07H169.035V380.908H383.085V379.07Z" fill="#D0CDE1"/>
<path d="M666.035 152.159H168.116V118.168H666.035V152.159ZM169.954 150.322H664.198V120.006H169.954V150.322Z" fill="#D0CDE1"/>
<path d="M574.556 279.152H544.859V285.091H574.556V279.152Z" fill="#3F3D56"/>
<path d="M637.556 150.394H607.859V156.333H637.556V150.394Z" fill="#3F3D56"/>
<path d="M41.9383 244.5H15.9383V218.5H41.9383V244.5ZM17.9383 242.5H39.9383V220.5H17.9383V242.5Z" fill="white"/>
<path d="M42.4344 302.5H16.4344V276.5H42.4344V302.5ZM18.4344 300.5H40.4344V278.5H18.4344V300.5Z" fill="white"/>
<path d="M42.9305 360.5H16.9305V334.5H42.9305V360.5ZM18.9305 358.5H40.9305V336.5H18.9305V358.5Z" fill="white"/>
<path d="M17.4344 343C21.8527 343 25.4344 339.418 25.4344 335C25.4344 330.582 21.8527 327 17.4344 327C13.0161 327 9.43439 330.582 9.43439 335C9.43439 339.418 13.0161 343 17.4344 343Z" fill="#408BA6"/>
<path d="M623 170C634.046 170 643 161.046 643 150C643 138.954 634.046 130 623 130C611.954 130 603 138.954 603 150C603 161.046 611.954 170 623 170Z" fill="#408BA6"/>
<path d="M1194.98 133.76V199.44C1194.98 200.047 1194.74 200.628 1194.31 201.057C1193.88 201.487 1193.3 201.728 1192.69 201.73H1191.06V543.88C1191.06 553.348 1187.3 562.428 1180.6 569.123C1173.91 575.818 1164.83 579.579 1155.36 579.58H941.57C936.882 579.58 932.241 578.656 927.91 576.861C923.58 575.067 919.645 572.437 916.331 569.122C913.017 565.807 910.388 561.872 908.595 557.54C906.802 553.209 905.879 548.568 905.88 543.88V213.73H904.7C904.272 213.731 903.861 213.562 903.557 213.26C903.254 212.958 903.082 212.548 903.08 212.12V174.74C903.08 174.527 903.122 174.317 903.203 174.12C903.285 173.923 903.404 173.745 903.554 173.594C903.705 173.444 903.883 173.325 904.08 173.243C904.277 173.162 904.487 173.12 904.7 173.12H905.88V159.04H904.69C904.241 159.038 903.81 158.858 903.493 158.54C903.177 158.221 902.999 157.789 903 157.34V120.47C903.001 120.022 903.18 119.593 903.496 119.276C903.813 118.96 904.242 118.781 904.69 118.78H905.88V99.56H904.67C904.473 99.5603 904.278 99.5216 904.096 99.4464C903.913 99.3711 903.748 99.2606 903.609 99.1212C903.469 98.9819 903.359 98.8164 903.284 98.6343C903.208 98.4522 903.17 98.2571 903.17 98.06V77.94C903.169 77.541 903.326 77.1579 903.608 76.8748C903.889 76.5917 904.271 76.4317 904.67 76.43H905.88V35.69C905.88 26.2245 909.641 17.1468 916.334 10.4537C923.027 3.76064 932.105 0.000344758 941.57 3.65276e-10H1155.36C1164.83 -4.27914e-05 1173.91 3.7598 1180.6 10.4527C1187.3 17.1456 1191.06 26.2235 1191.06 35.69V131.47H1192.69C1193.3 131.472 1193.88 131.713 1194.31 132.142C1194.74 132.572 1194.98 133.153 1194.98 133.76V133.76Z" fill="#3F3D56"/>
<path d="M1058.77 18.3067H1024.03C1022.62 18.3067 1021.48 19.4448 1021.48 20.8486V23.8513C1021.48 25.2551 1022.62 26.3932 1024.03 26.3932H1058.77C1060.17 26.3932 1061.31 25.2551 1061.31 23.8513V20.8486C1061.31 19.4448 1060.17 18.3067 1058.77 18.3067Z" fill="#E6E8EC"/>
<path d="M1071.92 26.9366C1074.45 26.9366 1076.5 24.8831 1076.5 22.35C1076.5 19.8168 1074.45 17.7633 1071.92 17.7633C1069.38 17.7633 1067.33 19.8168 1067.33 22.35C1067.33 24.8831 1069.38 26.9366 1071.92 26.9366Z" fill="#E6E8EC"/>
<path d="M1173.96 42.7498V546.84C1173.96 552.845 1171.57 558.604 1167.33 562.849C1163.08 567.095 1157.32 569.48 1151.32 569.48H946.665C943.69 569.485 940.743 568.903 937.993 567.767C935.244 566.631 932.745 564.964 930.641 562.861C928.537 560.758 926.868 558.26 925.731 555.511C924.594 552.761 924.011 549.815 924.015 546.84V42.7498C924.015 39.7753 924.601 36.8299 925.739 34.0818C926.877 31.3338 928.545 28.8368 930.649 26.7335C932.752 24.6303 935.249 22.9619 937.997 21.8237C940.745 20.6854 943.691 20.0997 946.665 20.0998H977.295V24.0298C977.295 28.976 979.26 33.7197 982.758 37.2173C986.255 40.7148 990.999 42.6797 995.945 42.6798H1100.02C1104.97 42.6798 1109.71 40.7148 1113.21 37.2173C1116.71 33.7197 1118.67 28.9761 1118.68 24.0298V20.0998H1151.32C1154.29 20.0988 1157.24 20.684 1159.98 21.8219C1162.73 22.9599 1165.23 24.6282 1167.33 26.7317C1169.44 28.8351 1171.1 31.3324 1172.24 34.0809C1173.38 36.8293 1173.97 39.7751 1173.96 42.7498V42.7498Z" fill="white"/>
<path d="M1153.41 351.959H945.407V378.959H1153.41V351.959Z" fill="#E6E6E6"/>
<path d="M1153.41 399.959H945.407V426.959H1153.41V399.959Z" fill="#E6E6E6"/>
<path d="M1153.41 447.959H945.407V474.959H1153.41V447.959Z" fill="#E6E6E6"/>
<path d="M1130.41 110.959C1141.45 110.959 1150.41 102.004 1150.41 90.9588C1150.41 79.9131 1141.45 70.9588 1130.41 70.9588C1119.36 70.9588 1110.41 79.9131 1110.41 90.9588C1110.41 102.004 1119.36 110.959 1130.41 110.959Z" fill="#408BA6"/>
<path d="M1152.99 157.959H944.99V295.959H1152.99V157.959Z" fill="#E6E6E6"/>
<path d="M1027.82 235.55C1033.89 258 1054.69 271.904 1054.69 271.904C1054.69 271.904 1065.65 249.409 1059.57 226.959C1053.5 204.509 1032.7 190.605 1032.7 190.605C1032.7 190.605 1021.74 213.1 1027.82 235.55Z" fill="#3F3D56"/>
<path d="M1036.74 230.725C1053.4 246.947 1055.44 271.885 1055.44 271.885C1055.44 271.885 1030.46 270.521 1013.79 254.299C997.127 238.076 995.091 213.138 995.091 213.138C995.091 213.138 1020.07 214.502 1036.74 230.725Z" fill="#408BA6"/>
<path d="M1083.06 235.55C1076.99 258 1056.19 271.904 1056.19 271.904C1056.19 271.904 1045.23 249.409 1051.31 226.959C1057.38 204.509 1078.18 190.605 1078.18 190.605C1078.18 190.605 1089.14 213.1 1083.06 235.55Z" fill="#3F3D56"/>
<path d="M1074.14 230.725C1057.48 246.947 1055.44 271.885 1055.44 271.885C1055.44 271.885 1080.42 270.521 1097.09 254.299C1113.75 238.076 1115.79 213.138 1115.79 213.138C1115.79 213.138 1090.81 214.502 1074.14 230.725Z" fill="#408BA6"/>
<path d="M664 275H456V413H664V275Z" fill="#E6E6E6"/>
<path d="M538.826 352.591C544.899 375.041 565.701 388.945 565.701 388.945C565.701 388.945 576.656 366.45 570.583 344C564.51 321.55 543.708 307.646 543.708 307.646C543.708 307.646 532.753 330.141 538.826 352.591Z" fill="#3F3D56"/>
<path d="M547.75 347.766C564.415 363.989 566.45 388.927 566.45 388.927C566.45 388.927 541.467 387.562 524.802 371.34C508.137 355.117 506.101 330.179 506.101 330.179C506.101 330.179 531.085 331.544 547.75 347.766Z" fill="#408BA6"/>
<path d="M594.075 352.591C588.001 375.041 567.199 388.945 567.199 388.945C567.199 388.945 556.244 366.45 562.317 344C568.39 321.55 589.192 307.646 589.192 307.646C589.192 307.646 600.148 330.141 594.075 352.591Z" fill="#3F3D56"/>
<path d="M585.15 347.766C568.486 363.989 566.45 388.927 566.45 388.927C566.45 388.927 591.434 387.562 608.099 371.34C624.763 355.117 626.799 330.179 626.799 330.179C626.799 330.179 601.815 331.544 585.15 347.766Z" fill="#408BA6"/>
</svg>
