<svg width="1115" height="609" viewBox="0 0 1115 609" fill="none" xmlns="http://www.w3.org/2000/svg">
<path d="M947.869 88.1658H189.967V580.573H947.869V88.1658Z" fill="#3F3D56"/>
<path d="M224.876 85.4098H167V582.41H224.876V85.4098Z" fill="#D0CDE1"/>
<path d="M487.616 222.292H336.035V224.129H487.616V222.292Z" fill="#D0CDE1"/>
<path d="M833.035 488.706H624.497V293.948H833.035V488.706ZM626.335 486.868H831.198V295.785H626.335V486.868Z" fill="#D0CDE1"/>
<path d="M626.043 294.194L624.789 295.538L831.489 488.459L832.743 487.115L626.043 294.194Z" fill="#D0CDE1"/>
<path d="M831.494 294.2L624.784 487.11L626.038 488.454L832.748 295.543L831.494 294.2Z" fill="#D0CDE1"/>
<path d="M550.085 357.336H336.035V359.173H550.085V357.336Z" fill="#D0CDE1"/>
<path d="M550.085 390.408H336.035V392.245H550.085V390.408Z" fill="#D0CDE1"/>
<path d="M550.085 423.48H336.035V425.317H550.085V423.48Z" fill="#D0CDE1"/>
<path d="M514.328 63.8197C525.047 63.8197 533.737 55.1296 533.737 44.4098C533.737 33.6901 525.047 25 514.328 25C503.608 25 494.918 33.6901 494.918 44.4098C494.918 55.1296 503.608 63.8197 514.328 63.8197Z" fill="#3F3D56"/>
<path d="M568.918 63.8197C579.638 63.8197 588.328 55.1296 588.328 44.4098C588.328 33.6901 579.638 25 568.918 25C558.198 25 549.508 33.6901 549.508 44.4098C549.508 55.1296 558.198 63.8197 568.918 63.8197Z" fill="#408BA6"/>
<path d="M623.508 63.8197C634.228 63.8197 642.918 55.1296 642.918 44.4098C642.918 33.6901 634.228 25 623.508 25C612.788 25 604.098 33.6901 604.098 44.4098C604.098 55.1296 612.788 63.8197 623.508 63.8197Z" fill="#D0CDE1"/>
<path d="M833.035 196.569H335.116V162.578H833.035V196.569ZM336.954 194.731H831.198V164.415H336.954V194.731Z" fill="#D0CDE1"/>
<path d="M384.434 264.41H335.434C339.217 249.188 338.761 232.72 335.434 215.41H384.434C377.575 231.743 377.575 248.077 384.434 264.41Z" fill="#D0CDE1"/>
<path d="M372.556 225.804H342.859V231.743H372.556V225.804Z" fill="#3F3D56"/>
<path d="M372.556 237.683H342.859V243.622H372.556V237.683Z" fill="#3F3D56"/>
<path d="M372.556 249.561H342.859V255.501H372.556V249.561Z" fill="#3F3D56"/>
<path d="M753.434 338.41H704.434C708.217 323.188 707.761 306.72 704.434 289.41H753.434C746.575 305.743 746.575 322.077 753.434 338.41Z" fill="#D0CDE1"/>
<path d="M741.556 299.804H711.859V305.743H741.556V299.804Z" fill="#3F3D56"/>
<path d="M741.556 311.683H711.859V317.622H741.556V311.683Z" fill="#3F3D56"/>
<path d="M741.556 323.561H711.859V329.501H741.556V323.561Z" fill="#3F3D56"/>
<path d="M816.434 233.41H767.434C771.217 218.188 770.761 201.72 767.434 184.41H816.434C809.575 200.743 809.575 217.077 816.434 233.41Z" fill="#D0CDE1"/>
<path d="M804.556 194.804H774.859V200.743H804.556V194.804Z" fill="#3F3D56"/>
<path d="M804.556 206.683H774.859V212.622H804.556V206.683Z" fill="#3F3D56"/>
<path d="M804.556 218.561H774.859V224.501H804.556V218.561Z" fill="#3F3D56"/>
<path d="M208.938 288.91H182.938V262.91H208.938V288.91ZM184.938 286.91H206.938V264.91H184.938V286.91Z" fill="#3F3D56"/>
<path d="M209.434 346.91H183.434V320.91H209.434V346.91ZM185.434 344.91H207.434V322.91H185.434V344.91Z" fill="#3F3D56"/>
<path d="M209.93 404.91H183.93V378.91H209.93V404.91ZM185.93 402.91H207.93V380.91H185.93V402.91Z" fill="#3F3D56"/>
<path d="M184.434 387.41C188.853 387.41 192.434 383.828 192.434 379.41C192.434 374.992 188.853 371.41 184.434 371.41C180.016 371.41 176.434 374.992 176.434 379.41C176.434 383.828 180.016 387.41 184.434 387.41Z" fill="#408BA6"/>
</svg>
